<svg xmlns="http://www.w3.org/2000/svg" xmlns:xlink="http://www.w3.org/1999/xlink" width="1080" zoomAndPan="magnify" viewBox="0 0 810 1012.49997" height="1350" preserveAspectRatio="xMidYMid meet" version="1.2"><defs><clipPath id="ff426547b7"><path d="M 0.199219 0 L 809.800781 0 L 809.800781 1012 L 0.199219 1012 Z M 0.199219 0 "/></clipPath><clipPath id="6c642d12f5"><path d="M 244 376 L 507 376 L 507 681.519531 L 244 681.519531 Z M 244 376 "/></clipPath><clipPath id="aa80b03471"><path d="M 244 376 L 507 376 L 507 681.519531 L 244 681.519531 Z M 244 376 "/></clipPath><clipPath id="d4a46a1b60"><path d="M 446 330.691406 L 560 330.691406 L 560 440 L 446 440 Z M 446 330.691406 "/></clipPath><clipPath id="31083b381e"><path d="M 446 330.691406 L 560 330.691406 L 560 440 L 446 440 Z M 446 330.691406 "/></clipPath><clipPath id="7502e9e895"><path d="M 503 441 L 566.921875 441 L 566.921875 504 L 503 504 Z M 503 441 "/></clipPath></defs><g id="a60d286c48"><g clip-rule="nonzero" clip-path="url(#ff426547b7)"><path style=" stroke:none;fill-rule:nonzero;fill:#ffffff;fill-opacity:1;" d="M 0.199219 0 L 809.800781 0 L 809.800781 1012 L 0.199219 1012 Z M 0.199219 0 "/><path style=" stroke:none;fill-rule:nonzero;fill:#ffffff;fill-opacity:1;" d="M 0.199219 0 L 809.800781 0 L 809.800781 1012 L 0.199219 1012 Z M 0.199219 0 "/></g><path style=" stroke:none;fill-rule:nonzero;fill:#5a211d;fill-opacity:1;" d="M 420.378906 387.292969 C 417.570312 382.265625 412.191406 379.109375 406.460938 379.109375 C 403.773438 379.109375 401.199219 379.808594 398.859375 381.097656 C 395.117188 383.203125 392.429688 386.476562 391.257812 390.570312 C 390.089844 394.664062 390.558594 398.988281 392.664062 402.613281 L 393.832031 404.71875 L 393.363281 405.773438 C 369.273438 460.503906 322.84375 493.949219 309.164062 502.953125 L 307.058594 504.359375 L 304.25 499.210938 C 303.78125 498.394531 303.082031 497.808594 302.144531 497.574219 C 301.796875 497.457031 301.5625 497.457031 301.210938 497.457031 C 300.625 497.457031 300.039062 497.574219 299.574219 497.925781 L 258.40625 520.613281 C 256.769531 521.546875 256.1875 523.652344 257.003906 525.292969 L 261.214844 532.890625 L 259.578125 534.179688 C 254.082031 538.507812 250.222656 544.234375 248.351562 550.785156 C 245.894531 559.207031 246.949219 568.09375 251.15625 575.8125 L 252.792969 578.851562 C 257.003906 586.570312 264.023438 592.183594 272.441406 594.523438 C 275.480469 595.339844 278.523438 595.808594 281.679688 595.808594 C 285.304688 595.808594 288.929688 595.109375 292.554688 593.820312 L 294.425781 593.121094 L 298.636719 600.722656 C 299.105469 601.539062 299.808594 602.125 300.742188 602.359375 C 301.09375 602.476562 301.328125 602.476562 301.679688 602.476562 C 302.261719 602.476562 302.847656 602.359375 303.316406 602.007812 L 311.851562 597.328125 L 330.097656 666.5625 C 331.382812 671.589844 335.007812 675.683594 339.800781 677.789062 C 341.90625 678.722656 344.128906 679.191406 346.46875 679.191406 C 349.273438 679.191406 352.082031 678.492188 354.65625 677.085938 C 361.085938 673.460938 364.476562 666.210938 363.074219 658.960938 L 352.785156 607.972656 L 354.539062 607.152344 C 360.851562 604.464844 372.195312 598.03125 377.925781 586.335938 C 381.902344 578.152344 382.488281 568.796875 379.445312 558.503906 L 378.746094 556.164062 L 381.085938 555.582031 C 402.019531 549.851562 422.953125 546.925781 443.300781 546.925781 C 453.125 546.925781 462.945312 547.628906 472.417969 549.03125 L 473.589844 549.148438 L 474.757812 551.253906 C 476.863281 554.996094 480.136719 557.683594 484.230469 558.855469 C 485.75 559.324219 487.15625 559.4375 488.675781 559.4375 C 491.363281 559.4375 493.9375 558.738281 496.277344 557.453125 C 500.019531 555.347656 502.707031 552.070312 503.878906 547.980469 C 505.046875 543.886719 504.578125 539.558594 502.472656 535.933594 Z M 288.113281 588.089844 C 286.007812 588.675781 283.785156 588.910156 281.5625 588.910156 C 279.109375 588.910156 276.652344 588.558594 274.3125 587.855469 C 267.648438 585.867188 262.152344 581.542969 258.757812 575.460938 L 257.121094 572.421875 C 253.730469 566.339844 253.027344 559.324219 254.898438 552.65625 C 256.1875 548.09375 258.640625 544.003906 262.152344 540.84375 L 264.371094 538.738281 L 291.152344 587.273438 Z M 302.847656 594.523438 L 264.488281 525.058594 L 299.691406 505.644531 L 338.046875 575.109375 Z M 356.058594 660.363281 C 356.875 664.691406 354.886719 669.019531 351.03125 671.121094 C 349.507812 671.941406 347.871094 672.410156 346.234375 672.410156 C 344.832031 672.410156 343.542969 672.175781 342.257812 671.589844 C 339.453125 670.421875 337.347656 667.964844 336.527344 664.925781 L 317.816406 594.054688 L 340.152344 581.777344 Z M 371.613281 583.414062 C 367.519531 591.832031 359.800781 596.980469 353.953125 599.902344 L 351.144531 601.304688 L 346.234375 576.164062 C 346.117188 576.046875 346 575.8125 345.882812 575.460938 L 345.765625 574.875 L 342.960938 569.730469 L 345.300781 568.679688 C 350.445312 566.339844 358.863281 562.832031 369.859375 559.207031 L 372.195312 558.386719 L 372.898438 560.726562 C 375.121094 569.261719 374.769531 576.863281 371.613281 583.414062 Z M 464.699219 541.195312 C 457.566406 540.492188 450.199219 540.027344 442.832031 540.027344 C 394.882812 540.027344 355.941406 555.8125 341.441406 562.597656 L 339.453125 563.53125 L 310.214844 510.4375 L 312.085938 509.269531 C 325.183594 500.847656 369.742188 469.390625 395.9375 416.414062 L 397.925781 412.320312 L 469.261719 541.664062 Z M 497.210938 546.222656 C 496.511719 548.5625 494.988281 550.433594 492.886719 551.605469 C 491.597656 552.304688 490.078125 552.773438 488.558594 552.773438 C 487.738281 552.773438 486.921875 552.65625 486.101562 552.421875 C 483.761719 551.722656 481.890625 550.199219 480.722656 548.09375 L 398.625 399.339844 C 397.457031 397.234375 397.222656 394.777344 397.808594 392.441406 C 398.507812 390.101562 400.03125 388.230469 402.136719 387.0625 C 403.421875 386.359375 404.941406 385.890625 406.460938 385.890625 C 409.734375 385.890625 412.777344 387.644531 414.414062 390.570312 L 496.511719 539.324219 C 497.5625 541.429688 497.796875 543.886719 497.210938 546.222656 Z M 497.210938 546.222656 "/><path style=" stroke:none;fill-rule:nonzero;fill:#5a211d;fill-opacity:1;" d="M 341.207031 576.046875 L 338.867188 571.835938 L 337.113281 568.679688 L 324.484375 545.875 L 302.847656 506.578125 L 300.507812 502.371094 L 296.296875 504.707031 L 265.308594 521.78125 L 261.097656 524.121094 L 263.4375 528.332031 L 266.359375 533.59375 L 267.648438 535.933594 L 299.457031 593.585938 L 301.796875 597.796875 L 306.003906 595.457031 L 336.996094 578.382812 Z M 303.78125 591.25 L 271.972656 533.59375 L 270.6875 531.253906 L 267.765625 525.992188 L 298.753906 508.917969 L 320.390625 548.210938 L 333.019531 571.015625 L 334.773438 574.175781 Z M 303.78125 591.25 "/><path style=" stroke:none;fill-rule:nonzero;fill:#5a211d;fill-opacity:1;" d="M 267.765625 540.378906 L 264.839844 534.996094 L 260.394531 539.207031 C 256.652344 542.714844 253.964844 547.160156 252.5625 552.070312 C 250.457031 559.324219 251.273438 567.039062 255.015625 573.707031 L 256.652344 576.746094 C 260.277344 583.414062 266.359375 588.207031 273.609375 590.3125 C 276.183594 591.015625 278.875 591.484375 281.5625 591.484375 C 284.019531 591.484375 286.359375 591.132812 288.695312 590.546875 L 294.660156 589.027344 L 291.738281 583.648438 Z M 281.5625 586.570312 C 279.339844 586.570312 277.121094 586.21875 275.015625 585.636719 C 268.933594 583.882812 263.90625 579.90625 260.863281 574.292969 L 259.226562 571.25 C 256.1875 565.753906 255.484375 559.324219 257.238281 553.242188 C 258.40625 549.03125 260.746094 545.40625 263.789062 542.597656 L 287.644531 585.753906 C 285.539062 586.335938 283.550781 586.570312 281.5625 586.570312 Z M 281.5625 586.570312 "/><path style=" stroke:none;fill-rule:nonzero;fill:#5a211d;fill-opacity:1;" d="M 341.90625 578.035156 L 336.175781 581.191406 L 318.285156 591.015625 L 315.011719 592.769531 L 315.945312 596.394531 L 334.1875 665.507812 C 335.125 669.25 337.699219 672.175781 341.324219 673.695312 C 342.84375 674.398438 344.480469 674.746094 346.234375 674.746094 C 348.339844 674.746094 350.328125 674.164062 352.199219 673.226562 C 356.992188 670.65625 359.449219 665.277344 358.398438 659.894531 L 343.195312 584.347656 Z M 349.976562 669.019531 C 348.808594 669.601562 347.519531 669.953125 346.351562 669.953125 C 345.300781 669.953125 344.363281 669.71875 343.3125 669.367188 C 341.089844 668.433594 339.570312 666.5625 338.984375 664.339844 L 320.742188 595.226562 L 338.632812 585.402344 L 353.835938 660.949219 C 354.421875 664.105469 352.902344 667.378906 349.976562 669.019531 Z M 349.976562 669.019531 "/><path style=" stroke:none;fill-rule:nonzero;fill:#5a211d;fill-opacity:1;" d="M 416.402344 389.515625 C 414.414062 385.890625 410.554688 383.667969 406.460938 383.667969 C 404.589844 383.667969 402.601562 384.136719 400.964844 385.074219 C 398.277344 386.59375 396.40625 388.933594 395.46875 391.855469 C 394.648438 394.777344 395 397.820312 396.40625 400.507812 L 478.5 549.265625 C 480.019531 551.953125 482.359375 553.824219 485.285156 554.761719 C 486.335938 555.113281 487.386719 555.230469 488.441406 555.230469 C 490.3125 555.230469 492.300781 554.761719 493.9375 553.824219 C 496.628906 552.304688 498.5 549.964844 499.316406 547.042969 C 500.136719 544.121094 499.785156 541.078125 498.382812 538.390625 Z M 494.871094 545.523438 C 494.40625 547.277344 493.234375 548.679688 491.714844 549.5 C 490.664062 550.082031 489.609375 550.316406 488.558594 550.316406 C 487.972656 550.316406 487.273438 550.199219 486.6875 550.082031 C 484.933594 549.617188 483.527344 548.445312 482.710938 546.925781 L 400.613281 398.171875 C 399.796875 396.652344 399.5625 394.777344 400.03125 393.140625 C 400.496094 391.386719 401.667969 389.984375 403.1875 389.164062 C 404.238281 388.582031 405.292969 388.347656 406.34375 388.347656 C 408.683594 388.347656 410.90625 389.632812 412.191406 391.738281 L 494.289062 540.492188 C 495.222656 542.015625 495.339844 543.886719 494.871094 545.523438 Z M 494.871094 545.523438 "/><g clip-rule="nonzero" clip-path="url(#6c642d12f5)"><path style=" stroke:none;fill-rule:nonzero;fill:#5a211d;fill-opacity:1;" d="M 422.484375 386.125 C 419.207031 380.042969 412.894531 376.652344 406.460938 376.652344 C 403.421875 376.652344 400.496094 377.355469 397.691406 378.875 C 393.363281 381.214844 390.324219 385.074219 388.917969 389.75 C 387.515625 394.429688 388.101562 399.339844 390.441406 403.667969 L 391.023438 404.71875 C 367.402344 458.28125 322.613281 491.027344 307.640625 500.847656 L 306.003906 497.925781 C 305.304688 496.523438 304.015625 495.585938 302.496094 495.117188 C 301.910156 495.003906 301.445312 494.886719 300.859375 494.886719 C 299.925781 494.886719 298.871094 495.117188 298.054688 495.585938 L 256.886719 518.273438 C 254.082031 519.792969 253.027344 523.417969 254.550781 526.226562 L 257.707031 532.074219 C 251.976562 536.636719 247.765625 542.714844 245.660156 549.851562 C 243.089844 558.855469 244.140625 568.445312 248.703125 576.746094 L 250.339844 579.789062 C 254.898438 588.089844 262.382812 594.054688 271.390625 596.628906 C 274.664062 597.5625 277.9375 598.03125 281.210938 598.03125 C 285.1875 598.03125 289.046875 597.328125 292.90625 595.925781 L 296.066406 601.65625 C 296.765625 603.058594 298.054688 603.996094 299.574219 604.464844 C 300.15625 604.582031 300.625 604.699219 301.210938 604.699219 C 302.144531 604.699219 303.199219 604.464844 304.015625 603.996094 L 309.863281 600.722656 L 327.40625 667.03125 C 328.925781 672.761719 332.902344 677.4375 338.398438 679.777344 C 340.855469 680.828125 343.429688 681.296875 346 681.296875 C 349.160156 681.296875 352.433594 680.476562 355.238281 678.839844 C 362.605469 674.746094 366.464844 666.445312 364.828125 658.140625 L 354.886719 609.023438 C 361.671875 606.101562 373.484375 599.433594 379.449219 587.039062 C 383.773438 578.265625 384.242188 568.328125 381.203125 557.449219 C 398.277344 552.773438 419.441406 548.796875 442.832031 548.796875 C 452.1875 548.796875 461.777344 549.382812 471.601562 550.902344 L 472.183594 551.953125 C 474.523438 556.28125 478.382812 559.320312 483.0625 560.726562 C 484.699219 561.195312 486.453125 561.425781 488.207031 561.425781 C 491.246094 561.425781 494.289062 560.609375 496.976562 559.089844 C 501.304688 556.75 504.34375 552.890625 505.75 548.210938 C 507.152344 543.535156 506.566406 538.621094 504.230469 534.296875 Z M 501.539062 547.511719 C 500.488281 551.019531 498.265625 553.824219 495.105469 555.578125 C 493.117188 556.632812 490.898438 557.21875 488.558594 557.21875 C 487.273438 557.21875 485.984375 556.984375 484.816406 556.632812 C 481.308594 555.578125 478.5 553.359375 476.746094 550.199219 L 476.160156 549.148438 L 474.992188 547.042969 L 472.652344 546.691406 C 463.0625 545.289062 453.238281 544.585938 443.183594 544.585938 C 422.71875 544.585938 401.550781 547.511719 380.382812 553.359375 L 375.703125 554.644531 L 376.992188 559.324219 C 379.796875 569.027344 379.332031 577.800781 375.589844 585.402344 C 370.207031 596.511719 359.332031 602.476562 353.367188 605.046875 L 349.859375 606.570312 L 350.679688 610.3125 L 360.617188 659.429688 C 361.90625 665.625 358.980469 671.941406 353.367188 674.980469 C 351.261719 676.152344 348.808594 676.851562 346.351562 676.851562 C 344.363281 676.851562 342.492188 676.503906 340.621094 675.683594 C 336.527344 673.929688 333.488281 670.421875 332.316406 666.09375 L 314.777344 599.785156 L 313.253906 593.9375 L 307.875 596.863281 L 302.027344 600.136719 C 301.910156 600.253906 301.679688 600.253906 301.5625 600.253906 L 301.210938 600.253906 C 300.976562 600.136719 300.742188 600.019531 300.625 599.785156 L 297.46875 594.054688 L 295.480469 590.546875 L 291.621094 591.949219 C 288.230469 593.121094 284.839844 593.703125 281.5625 593.703125 C 278.640625 593.703125 275.832031 593.238281 273.027344 592.535156 C 265.191406 590.3125 258.757812 585.050781 254.78125 577.917969 L 253.144531 574.875 C 249.167969 567.742188 248.234375 559.4375 250.574219 551.605469 C 252.328125 545.523438 255.953125 540.261719 260.980469 536.167969 L 264.136719 533.710938 L 262.152344 530.203125 L 258.992188 524.355469 C 258.757812 524.003906 258.875 523.769531 258.875 523.535156 C 258.875 523.304688 259.109375 523.070312 259.34375 522.953125 L 300.507812 500.265625 C 300.625 500.148438 300.859375 500.148438 300.976562 500.148438 L 301.328125 500.148438 C 301.5625 500.265625 301.796875 500.382812 301.910156 500.617188 L 303.550781 503.539062 L 306.003906 508.101562 L 310.332031 505.292969 C 324.132812 496.289062 371.027344 462.375 395.46875 407.058594 L 396.40625 404.953125 L 395.234375 402.847656 L 394.648438 401.796875 C 392.894531 398.636719 392.546875 395.011719 393.480469 391.503906 C 394.535156 387.996094 396.753906 385.191406 399.914062 383.433594 C 401.902344 382.382812 404.121094 381.796875 406.460938 381.796875 C 411.375 381.796875 415.933594 384.488281 418.273438 388.816406 L 500.371094 537.570312 C 502.125 540.378906 502.472656 544.003906 501.539062 547.511719 Z M 501.539062 547.511719 "/></g><path style=" stroke:none;fill-rule:nonzero;fill:#5a211d;fill-opacity:1;" d="M 373.71875 555.230469 L 369.039062 556.75 C 357.929688 560.375 349.390625 563.882812 344.246094 566.339844 L 339.570312 568.445312 L 342.023438 572.886719 L 343.429688 575.460938 C 343.429688 575.695312 343.542969 575.8125 343.542969 576.046875 C 343.660156 576.28125 343.660156 576.511719 343.777344 576.628906 L 348.222656 598.5 L 349.507812 604.582031 L 355.121094 601.773438 C 361.203125 598.734375 369.507812 593.238281 373.832031 584.230469 C 377.226562 577.214844 377.691406 568.910156 375.121094 559.90625 Z M 369.507812 582.359375 C 365.648438 590.195312 358.28125 595.109375 353.015625 597.679688 L 348.339844 575.226562 C 348.339844 574.992188 348.105469 574.875 348.105469 574.640625 C 347.988281 574.292969 347.988281 573.941406 347.753906 573.589844 L 346.117188 570.667969 C 351.144531 568.328125 359.566406 564.820312 370.441406 561.308594 C 372.664062 569.261719 372.429688 576.28125 369.507812 582.359375 Z M 369.507812 582.359375 "/><path style=" stroke:none;fill-rule:nonzero;fill:#5a211d;fill-opacity:1;" d="M 402.25 415.246094 L 397.808594 407.292969 L 393.832031 415.480469 C 367.988281 467.871094 323.78125 499.09375 310.917969 507.398438 L 307.175781 509.855469 L 309.28125 513.714844 L 336.410156 562.832031 L 338.515625 566.691406 L 342.609375 564.820312 C 356.992188 558.152344 395.46875 542.480469 442.949219 542.480469 C 450.199219 542.480469 457.449219 542.832031 464.582031 543.652344 L 473.707031 544.585938 L 469.261719 536.636719 Z M 442.832031 537.6875 C 393.949219 537.6875 354.304688 553.941406 340.503906 560.492188 L 313.371094 511.375 C 328.109375 501.902344 371.847656 470.558594 398.042969 417.582031 L 464.933594 538.855469 C 457.449219 538.039062 450.082031 537.6875 442.832031 537.6875 Z M 442.832031 537.6875 "/><path style=" stroke:none;fill-rule:nonzero;fill:#5a211d;fill-opacity:1;" d="M 337.929688 575.109375 L 336.761719 573.003906 L 335.007812 569.847656 L 322.378906 547.042969 L 300.742188 507.75 L 299.574219 505.644531 L 297.46875 506.8125 L 266.476562 523.886719 L 264.371094 525.058594 L 265.542969 527.164062 L 268.464844 532.425781 L 269.75 534.761719 L 301.5625 592.417969 L 302.730469 594.523438 L 304.835938 593.355469 L 335.828125 576.28125 Z M 303.78125 591.25 L 271.972656 533.59375 L 270.6875 531.253906 L 267.765625 525.992188 L 298.753906 508.917969 L 320.390625 548.210938 L 333.019531 571.015625 L 334.773438 574.175781 Z M 303.78125 591.25 "/><path style=" stroke:none;fill-rule:nonzero;fill:#5a211d;fill-opacity:1;" d="M 265.660156 541.429688 L 264.136719 538.738281 L 261.917969 540.84375 C 258.523438 544.003906 256.070312 548.09375 254.664062 552.65625 C 252.679688 559.324219 253.496094 566.339844 256.886719 572.421875 L 258.523438 575.460938 C 261.917969 581.542969 267.414062 585.984375 274.078125 587.855469 C 276.417969 588.558594 278.875 588.910156 281.328125 588.910156 C 283.550781 588.910156 285.773438 588.675781 287.878906 588.089844 L 290.800781 587.273438 L 289.28125 584.582031 Z M 281.5625 586.570312 C 279.339844 586.570312 277.121094 586.21875 275.015625 585.636719 C 268.933594 583.882812 263.90625 579.90625 260.863281 574.292969 L 259.226562 571.25 C 256.1875 565.753906 255.484375 559.324219 257.238281 553.242188 C 258.40625 549.03125 260.746094 545.40625 263.789062 542.597656 L 287.644531 585.753906 C 285.539062 586.335938 283.550781 586.570312 281.5625 586.570312 Z M 281.5625 586.570312 "/><path style=" stroke:none;fill-rule:nonzero;fill:#5a211d;fill-opacity:1;" d="M 414.296875 390.570312 C 412.660156 387.644531 409.734375 385.890625 406.34375 385.890625 C 404.824219 385.890625 403.304688 386.242188 402.019531 387.0625 C 399.914062 388.230469 398.390625 390.101562 397.691406 392.441406 C 396.988281 394.777344 397.339844 397.234375 398.507812 399.339844 L 480.605469 548.09375 C 481.773438 550.199219 483.644531 551.722656 485.984375 552.421875 C 486.804688 552.65625 487.621094 552.773438 488.441406 552.773438 C 489.960938 552.773438 491.480469 552.421875 492.769531 551.605469 C 494.871094 550.433594 496.394531 548.5625 497.09375 546.222656 C 497.796875 543.886719 497.445312 541.429688 496.277344 539.324219 Z M 494.871094 545.523438 C 494.40625 547.277344 493.234375 548.679688 491.714844 549.5 C 490.664062 550.082031 489.609375 550.316406 488.558594 550.316406 C 487.972656 550.316406 487.273438 550.199219 486.6875 550.082031 C 484.933594 549.617188 483.527344 548.445312 482.710938 546.925781 L 400.613281 398.171875 C 399.796875 396.652344 399.5625 394.777344 400.03125 393.140625 C 400.496094 391.386719 401.667969 389.984375 403.1875 389.164062 C 404.238281 388.582031 405.292969 388.347656 406.34375 388.347656 C 408.683594 388.347656 410.90625 389.632812 412.191406 391.738281 L 494.289062 540.492188 C 495.222656 542.015625 495.339844 543.886719 494.871094 545.523438 Z M 494.871094 545.523438 "/><g clip-rule="nonzero" clip-path="url(#aa80b03471)"><path style=" stroke:none;fill-rule:nonzero;fill:#5a211d;fill-opacity:1;" d="M 422.484375 386.125 C 419.207031 380.042969 412.894531 376.652344 406.460938 376.652344 C 403.421875 376.652344 400.496094 377.355469 397.691406 378.875 C 393.363281 381.214844 390.324219 385.074219 388.917969 389.75 C 387.515625 394.429688 388.101562 399.339844 390.441406 403.667969 L 391.023438 404.71875 C 367.402344 458.28125 322.613281 491.027344 307.640625 500.847656 L 306.003906 497.925781 C 305.304688 496.523438 304.015625 495.585938 302.496094 495.117188 C 301.910156 495.003906 301.445312 494.886719 300.859375 494.886719 C 299.925781 494.886719 298.871094 495.117188 298.054688 495.585938 L 256.886719 518.273438 C 254.082031 519.792969 253.027344 523.417969 254.550781 526.226562 L 257.707031 532.074219 C 251.976562 536.636719 247.765625 542.714844 245.660156 549.851562 C 243.089844 558.855469 244.140625 568.445312 248.703125 576.746094 L 250.339844 579.789062 C 254.898438 588.089844 262.382812 594.054688 271.390625 596.628906 C 274.664062 597.5625 277.9375 598.03125 281.210938 598.03125 C 285.1875 598.03125 289.046875 597.328125 292.90625 595.925781 L 296.066406 601.65625 C 296.765625 603.058594 298.054688 603.996094 299.574219 604.464844 C 300.15625 604.582031 300.625 604.699219 301.210938 604.699219 C 302.144531 604.699219 303.199219 604.464844 304.015625 603.996094 L 309.863281 600.722656 L 327.40625 667.03125 C 328.925781 672.761719 332.902344 677.4375 338.398438 679.777344 C 340.855469 680.828125 343.429688 681.296875 346 681.296875 C 349.160156 681.296875 352.433594 680.476562 355.238281 678.839844 C 362.605469 674.746094 366.464844 666.445312 364.828125 658.140625 L 354.886719 609.023438 C 361.671875 606.101562 373.484375 599.433594 379.449219 587.039062 C 383.773438 578.265625 384.242188 568.328125 381.203125 557.449219 C 398.277344 552.773438 419.441406 548.796875 442.832031 548.796875 C 452.1875 548.796875 461.777344 549.382812 471.601562 550.902344 L 472.183594 551.953125 C 474.523438 556.28125 478.382812 559.320312 483.0625 560.726562 C 484.699219 561.195312 486.453125 561.425781 488.207031 561.425781 C 491.246094 561.425781 494.289062 560.609375 496.976562 559.089844 C 501.304688 556.75 504.34375 552.890625 505.75 548.210938 C 507.152344 543.535156 506.566406 538.621094 504.230469 534.296875 Z M 503.761719 548.09375 C 502.589844 552.1875 499.902344 555.578125 496.160156 557.566406 C 493.820312 558.855469 491.128906 559.554688 488.558594 559.554688 C 487.039062 559.554688 485.632812 559.324219 484.113281 558.972656 C 480.019531 557.800781 476.628906 555.113281 474.640625 551.371094 L 474.054688 550.316406 L 473.472656 549.265625 L 472.300781 549.148438 C 462.828125 547.746094 453.125 547.042969 443.183594 547.042969 C 422.835938 547.042969 402.019531 549.964844 380.96875 555.695312 L 378.628906 556.28125 L 379.332031 558.621094 C 382.253906 568.910156 381.785156 578.269531 377.691406 586.453125 C 371.960938 598.148438 360.617188 604.582031 354.304688 607.269531 L 352.550781 608.089844 L 352.902344 609.960938 L 362.839844 659.078125 C 364.359375 666.328125 360.96875 673.578125 354.421875 677.203125 C 351.964844 678.605469 349.042969 679.308594 346.234375 679.308594 C 343.894531 679.308594 341.671875 678.839844 339.570312 677.90625 C 334.773438 675.800781 331.265625 671.707031 329.863281 666.679688 L 312.320312 600.371094 L 311.5 597.445312 L 308.8125 598.96875 L 302.964844 602.242188 C 302.496094 602.476562 301.910156 602.710938 301.328125 602.710938 C 300.976562 602.710938 300.742188 602.710938 300.390625 602.59375 C 299.457031 602.359375 298.753906 601.773438 298.285156 600.957031 L 295.128906 595.226562 L 294.195312 593.46875 L 292.4375 593.9375 C 288.8125 595.226562 285.1875 595.808594 281.5625 595.808594 C 278.523438 595.808594 275.367188 595.339844 272.324219 594.523438 C 263.90625 592.066406 256.886719 586.453125 252.679688 578.851562 L 251.039062 575.8125 C 246.832031 568.09375 245.777344 559.207031 248.234375 550.785156 C 250.105469 544.234375 253.964844 538.507812 259.460938 534.179688 L 261.097656 532.890625 L 260.164062 531.136719 L 257.003906 525.292969 C 256.535156 524.472656 256.421875 523.535156 256.652344 522.71875 C 256.886719 521.78125 257.472656 521.082031 258.292969 520.613281 L 299.457031 497.925781 C 299.925781 497.691406 300.507812 497.457031 301.09375 497.457031 C 301.445312 497.457031 301.679688 497.457031 302.027344 497.574219 C 302.964844 497.808594 303.667969 498.394531 304.132812 499.210938 L 305.769531 502.136719 L 307.058594 504.359375 L 309.164062 502.953125 C 322.84375 493.949219 369.273438 460.503906 393.363281 405.773438 L 393.832031 404.71875 L 393.246094 403.667969 L 392.664062 402.613281 C 390.558594 398.871094 390.089844 394.664062 391.257812 390.570312 C 392.429688 386.476562 395.117188 383.085938 398.859375 381.097656 C 401.199219 379.808594 403.890625 379.109375 406.460938 379.109375 C 412.308594 379.109375 417.570312 382.265625 420.378906 387.292969 L 502.472656 536.050781 C 504.460938 539.792969 504.929688 544.003906 503.761719 548.09375 Z M 503.761719 548.09375 "/></g><path style=" stroke:none;fill-rule:nonzero;fill:#5a211d;fill-opacity:1;" d="M 340.269531 581.660156 L 337.464844 583.179688 L 319.570312 593.003906 L 317.933594 593.9375 L 318.402344 595.691406 L 336.644531 664.808594 C 337.464844 667.847656 339.570312 670.1875 342.375 671.472656 C 343.660156 672.058594 344.949219 672.292969 346.351562 672.292969 C 347.988281 672.292969 349.742188 671.824219 351.144531 671.003906 C 355.003906 668.902344 356.992188 664.574219 356.175781 660.246094 L 340.972656 584.699219 Z M 349.976562 669.019531 C 348.808594 669.601562 347.519531 669.953125 346.351562 669.953125 C 345.300781 669.953125 344.363281 669.71875 343.3125 669.367188 C 341.089844 668.433594 339.570312 666.5625 338.984375 664.339844 L 320.742188 595.226562 L 338.632812 585.402344 L 353.835938 660.949219 C 354.421875 664.105469 352.902344 667.378906 349.976562 669.019531 Z M 349.976562 669.019531 "/><path style=" stroke:none;fill-rule:nonzero;fill:#5a211d;fill-opacity:1;" d="M 400.148438 416.414062 L 397.925781 412.4375 L 395.9375 416.53125 C 369.859375 469.507812 325.183594 500.964844 312.085938 509.386719 L 310.214844 510.554688 L 311.269531 512.542969 L 338.398438 561.660156 L 339.453125 563.648438 L 341.441406 562.714844 C 355.941406 555.929688 394.765625 540.144531 442.832031 540.144531 C 450.199219 540.144531 457.566406 540.492188 464.699219 541.3125 L 469.261719 541.78125 L 467.039062 537.804688 Z M 442.832031 537.6875 C 393.949219 537.6875 354.304688 553.941406 340.503906 560.492188 L 313.371094 511.375 C 328.109375 501.902344 371.847656 470.558594 398.042969 417.582031 L 464.933594 538.855469 C 457.449219 538.039062 450.082031 537.6875 442.832031 537.6875 Z M 442.832031 537.6875 "/><path style=" stroke:none;fill-rule:nonzero;fill:#5a211d;fill-opacity:1;" d="M 372.078125 558.269531 L 369.742188 559.089844 C 358.746094 562.714844 350.328125 566.222656 345.183594 568.5625 L 342.84375 569.613281 L 344.128906 571.835938 L 345.765625 574.875 C 345.765625 575.109375 345.882812 575.226562 345.882812 575.460938 L 346.117188 576.046875 L 350.5625 598.265625 L 351.144531 601.304688 L 353.953125 599.902344 C 359.800781 596.980469 367.519531 591.832031 371.613281 583.414062 C 374.769531 576.863281 375.121094 569.261719 372.78125 560.726562 Z M 369.507812 582.359375 C 365.648438 590.195312 358.28125 595.109375 353.015625 597.679688 L 348.339844 575.226562 C 348.339844 574.992188 348.105469 574.875 348.105469 574.640625 C 347.988281 574.292969 347.988281 573.941406 347.753906 573.589844 L 346.117188 570.667969 C 351.144531 568.328125 359.566406 564.820312 370.441406 561.308594 C 372.664062 569.261719 372.429688 576.28125 369.507812 582.359375 Z M 369.507812 582.359375 "/><path style=" stroke:none;fill-rule:nonzero;fill:#5a211d;fill-opacity:1;" d="M 489.027344 351.859375 C 488.675781 351.742188 488.441406 351.625 488.089844 351.507812 C 486.335938 350.808594 484.464844 350.574219 482.59375 350.574219 C 475.34375 350.574219 468.675781 355.484375 465.988281 362.734375 C 465.285156 364.492188 466.222656 366.476562 467.976562 367.179688 C 468.328125 367.296875 468.792969 367.414062 469.144531 367.414062 C 470.546875 367.414062 471.835938 366.476562 472.417969 365.191406 C 474.171875 360.632812 478.148438 357.589844 482.59375 357.589844 C 483.761719 357.589844 484.933594 357.824219 486.21875 358.292969 C 486.6875 358.527344 487.15625 358.644531 487.621094 358.644531 C 489.027344 358.644531 490.195312 357.824219 490.78125 356.539062 C 491.128906 355.71875 491.128906 354.785156 490.898438 353.847656 C 490.546875 352.914062 489.960938 352.328125 489.027344 351.859375 Z M 489.027344 351.859375 "/><path style=" stroke:none;fill-rule:nonzero;fill:#5a211d;fill-opacity:1;" d="M 536.621094 350.808594 C 533.230469 349.519531 529.605469 348.9375 525.980469 348.9375 C 521.886719 348.9375 517.910156 349.753906 514.050781 351.273438 L 512.0625 352.09375 L 511.011719 350.222656 C 507.386719 343.207031 501.421875 337.828125 494.171875 335.136719 C 490.78125 333.851562 487.15625 333.265625 483.527344 333.265625 C 478.382812 333.265625 473.355469 334.550781 468.675781 337.007812 C 460.609375 341.21875 454.292969 348.351562 451.019531 357.238281 C 450.902344 357.589844 450.550781 358.527344 450.082031 359.929688 C 449.148438 363.085938 448.679688 366.476562 448.5625 369.636719 C 447.742188 384.839844 452.304688 408.695312 479.085938 436.644531 C 479.785156 437.347656 480.605469 437.699219 481.542969 437.699219 L 481.890625 437.699219 C 520.25 434.074219 539.3125 418.871094 548.667969 406.824219 C 550.773438 404.25 552.527344 401.5625 553.8125 398.523438 C 554.28125 397.585938 554.515625 396.882812 554.75 396.417969 L 554.984375 395.714844 C 561.882812 377.238281 553.578125 357.121094 536.621094 350.808594 Z M 548.550781 393.492188 C 548.550781 393.609375 548.199219 394.429688 547.617188 395.597656 C 546.445312 398.054688 545.042969 400.394531 543.171875 402.613281 C 536.503906 411.269531 520.015625 426.472656 483.996094 430.566406 L 482.828125 430.683594 L 482.007812 429.746094 C 457.449219 403.199219 454.761719 380.746094 455.34375 369.871094 C 455.34375 367.179688 455.8125 364.375 456.632812 361.683594 C 456.984375 360.515625 457.214844 359.8125 457.332031 359.460938 C 460.023438 352.210938 465.167969 346.363281 471.71875 342.972656 C 475.460938 340.984375 479.4375 340.046875 483.414062 340.046875 C 486.21875 340.046875 489.027344 340.515625 491.714844 341.570312 C 498.964844 344.257812 504.460938 350.222656 506.800781 358.058594 C 507.152344 359.109375 507.855469 359.929688 508.90625 360.28125 C 509.257812 360.398438 509.726562 360.515625 510.074219 360.515625 C 510.777344 360.515625 511.363281 360.28125 511.945312 359.929688 C 516.273438 357.238281 521.070312 355.71875 525.863281 355.71875 C 528.671875 355.71875 531.476562 356.1875 534.167969 357.238281 C 547.734375 362.269531 554.164062 378.523438 548.550781 393.492188 Z M 548.550781 393.492188 "/><path style=" stroke:none;fill-rule:nonzero;fill:#5a211d;fill-opacity:1;" d="M 535.101562 355.132812 C 532.179688 354.082031 529.136719 353.496094 525.980469 353.496094 C 520.71875 353.496094 515.457031 355.019531 510.777344 358.058594 C 510.660156 358.175781 510.425781 358.175781 510.191406 358.175781 C 510.074219 358.175781 509.960938 358.175781 509.84375 358.058594 C 509.492188 357.941406 509.257812 357.707031 509.140625 357.355469 C 506.566406 348.820312 500.488281 342.152344 492.652344 339.230469 C 489.726562 338.175781 486.6875 337.59375 483.527344 337.59375 C 479.085938 337.59375 474.757812 338.644531 470.664062 340.75 C 463.648438 344.375 458.152344 350.691406 455.226562 358.410156 C 455.113281 358.875 454.761719 359.578125 454.410156 360.863281 C 453.589844 363.789062 453.125 366.710938 453.125 369.519531 C 452.539062 380.863281 455.226562 404.019531 480.371094 431.148438 L 482.007812 432.902344 L 484.464844 432.667969 C 521.304688 428.460938 538.375 412.789062 545.160156 403.902344 C 547.148438 401.445312 548.667969 398.988281 549.953125 396.417969 C 550.65625 395.011719 550.890625 394.195312 550.890625 394.195312 C 556.855469 378.171875 549.71875 360.515625 535.101562 355.132812 Z M 546.328125 392.675781 C 546.328125 392.792969 546.09375 393.492188 545.511719 394.546875 C 544.457031 396.882812 543.171875 398.988281 541.417969 401.09375 C 534.867188 409.515625 518.964844 424.132812 483.878906 428.109375 C 460.023438 402.265625 457.332031 380.746094 457.917969 369.871094 C 457.917969 367.296875 458.386719 364.839844 459.085938 362.269531 C 459.320312 361.214844 459.554688 360.632812 459.789062 360.28125 C 462.246094 353.613281 466.921875 348.234375 473.003906 345.078125 C 476.394531 343.324219 480.019531 342.386719 483.644531 342.386719 C 486.21875 342.386719 488.675781 342.855469 491.128906 343.675781 C 497.679688 346.128906 502.589844 351.507812 504.8125 358.644531 C 505.398438 360.398438 506.683594 361.800781 508.320312 362.386719 C 509.023438 362.617188 509.609375 362.734375 510.308594 362.734375 C 511.363281 362.734375 512.53125 362.386719 513.46875 361.800781 C 517.445312 359.226562 521.769531 357.941406 526.214844 357.941406 C 528.789062 357.941406 531.242188 358.410156 533.699219 359.226562 C 545.628906 364.023438 551.476562 378.875 546.328125 392.675781 Z M 546.328125 392.675781 "/><path style=" stroke:none;fill-rule:nonzero;fill:#5a211d;fill-opacity:1;" d="M 490.078125 349.753906 C 489.726562 349.636719 489.375 349.402344 489.027344 349.289062 C 486.921875 348.46875 484.816406 348.117188 482.710938 348.117188 C 474.640625 348.117188 466.921875 353.378906 463.765625 361.800781 C 462.597656 364.839844 464.234375 368.117188 467.15625 369.285156 C 467.859375 369.519531 468.558594 369.636719 469.144531 369.636719 C 471.484375 369.636719 473.707031 368.234375 474.640625 365.777344 C 476.042969 362.152344 479.203125 359.8125 482.59375 359.8125 C 483.527344 359.8125 484.347656 359.929688 485.285156 360.28125 C 486.101562 360.632812 486.804688 360.746094 487.621094 360.746094 C 489.84375 360.746094 491.949219 359.460938 492.886719 357.238281 C 494.289062 354.433594 493 351.042969 490.078125 349.753906 Z M 488.675781 355.484375 C 488.441406 355.953125 487.972656 356.070312 487.738281 356.070312 C 487.621094 356.070312 487.386719 356.070312 487.039062 355.835938 C 485.632812 355.367188 484.230469 355.019531 482.710938 355.019531 C 477.214844 355.019531 472.300781 358.644531 470.3125 364.140625 C 470.082031 364.605469 469.730469 364.839844 469.261719 364.839844 C 469.144531 364.839844 469.027344 364.839844 468.910156 364.722656 C 468.558594 364.605469 468.441406 364.375 468.328125 364.140625 C 468.210938 363.90625 468.210938 363.671875 468.328125 363.320312 C 470.664062 357.003906 476.511719 352.796875 482.710938 352.796875 C 484.347656 352.796875 485.867188 353.03125 487.386719 353.613281 C 487.621094 353.730469 487.972656 353.847656 488.207031 353.964844 C 488.675781 354.316406 488.910156 354.902344 488.675781 355.484375 Z M 488.675781 355.484375 "/><g clip-rule="nonzero" clip-path="url(#d4a46a1b60)"><path style=" stroke:none;fill-rule:nonzero;fill:#5a211d;fill-opacity:1;" d="M 537.441406 348.585938 C 533.699219 347.183594 529.839844 346.480469 525.980469 346.480469 C 521.652344 346.480469 517.328125 347.300781 513.117188 348.9375 C 509.140625 341.453125 502.824219 335.722656 494.988281 332.796875 C 491.246094 331.394531 487.386719 330.691406 483.527344 330.691406 C 478.148438 330.691406 472.652344 331.980469 467.507812 334.667969 C 458.855469 339.113281 452.1875 346.714844 448.679688 356.1875 C 448.5625 356.539062 448.210938 357.589844 447.742188 359.109375 C 446.808594 362.503906 446.222656 366.011719 446.222656 369.402344 C 445.40625 385.074219 450.082031 409.632812 477.332031 438.167969 C 478.382812 439.335938 479.902344 439.921875 481.542969 439.921875 C 481.773438 439.921875 481.890625 439.921875 482.125 439.921875 C 521.304688 436.179688 540.949219 420.625 550.539062 408.109375 C 552.761719 405.421875 554.632812 402.378906 556.035156 399.339844 C 556.855469 397.46875 557.320312 396.417969 557.320312 396.417969 C 564.574219 376.886719 555.683594 355.367188 537.441406 348.585938 Z M 552.878906 394.894531 L 552.644531 395.597656 C 552.527344 396.066406 552.175781 396.652344 551.824219 397.585938 C 550.539062 400.277344 548.902344 402.964844 546.914062 405.421875 C 537.910156 417.117188 519.316406 431.734375 481.773438 435.359375 C 481.542969 435.359375 481.191406 435.242188 480.957031 435.007812 C 454.878906 407.761719 450.316406 384.488281 451.136719 369.636719 C 451.136719 366.710938 451.71875 363.554688 452.539062 360.515625 C 452.890625 359.226562 453.238281 358.410156 453.355469 357.941406 C 456.398438 349.636719 462.246094 342.972656 469.847656 338.996094 C 474.289062 336.773438 478.96875 335.605469 483.644531 335.605469 C 487.039062 335.605469 490.3125 336.1875 493.46875 337.359375 C 500.136719 339.816406 505.632812 344.726562 509.023438 351.273438 L 511.011719 355.132812 L 514.988281 353.496094 C 518.613281 352.09375 522.238281 351.390625 525.980469 351.390625 C 529.371094 351.390625 532.648438 351.976562 535.804688 353.148438 C 551.59375 358.875 559.191406 377.707031 552.878906 394.894531 Z M 552.878906 394.894531 "/></g><path style=" stroke:none;fill-rule:nonzero;fill:#5a211d;fill-opacity:1;" d="M 490.078125 349.753906 C 489.726562 349.636719 489.375 349.402344 489.027344 349.289062 C 486.921875 348.46875 484.816406 348.117188 482.710938 348.117188 C 474.640625 348.117188 466.921875 353.378906 463.765625 361.800781 C 462.597656 364.839844 464.234375 368.117188 467.15625 369.285156 C 467.859375 369.519531 468.558594 369.636719 469.144531 369.636719 C 471.484375 369.636719 473.707031 368.234375 474.640625 365.777344 C 476.042969 362.152344 479.203125 359.8125 482.59375 359.8125 C 483.527344 359.8125 484.347656 359.929688 485.285156 360.28125 C 486.101562 360.632812 486.804688 360.746094 487.621094 360.746094 C 489.84375 360.746094 491.949219 359.460938 492.886719 357.238281 C 494.289062 354.433594 493 351.042969 490.078125 349.753906 Z M 490.78125 356.421875 C 490.195312 357.707031 489.027344 358.527344 487.621094 358.527344 C 487.15625 358.527344 486.6875 358.410156 486.101562 358.175781 C 484.933594 357.707031 483.761719 357.589844 482.59375 357.589844 C 478.148438 357.589844 474.054688 360.515625 472.417969 365.191406 C 471.953125 366.476562 470.664062 367.414062 469.144531 367.414062 C 468.792969 367.414062 468.328125 367.296875 467.976562 367.179688 C 467.15625 366.828125 466.457031 366.246094 465.988281 365.425781 C 465.636719 364.605469 465.519531 363.671875 465.871094 362.734375 C 468.558594 355.484375 475.226562 350.574219 482.476562 350.574219 C 484.347656 350.574219 486.21875 350.925781 487.972656 351.507812 C 488.324219 351.625 488.558594 351.742188 488.910156 351.859375 C 490.78125 352.679688 491.597656 354.667969 490.78125 356.421875 Z M 490.78125 356.421875 "/><g clip-rule="nonzero" clip-path="url(#31083b381e)"><path style=" stroke:none;fill-rule:nonzero;fill:#5a211d;fill-opacity:1;" d="M 537.441406 348.585938 C 533.699219 347.183594 529.839844 346.480469 525.980469 346.480469 C 521.652344 346.480469 517.328125 347.300781 513.117188 348.9375 C 509.140625 341.453125 502.824219 335.722656 494.988281 332.796875 C 491.246094 331.394531 487.386719 330.691406 483.527344 330.691406 C 478.148438 330.691406 472.652344 331.980469 467.507812 334.667969 C 458.855469 339.113281 452.1875 346.714844 448.679688 356.1875 C 448.5625 356.539062 448.210938 357.589844 447.742188 359.109375 C 446.808594 362.503906 446.222656 366.011719 446.222656 369.402344 C 445.40625 385.074219 450.082031 409.632812 477.332031 438.167969 C 478.382812 439.335938 479.902344 439.921875 481.542969 439.921875 C 481.773438 439.921875 481.890625 439.921875 482.125 439.921875 C 521.304688 436.179688 540.949219 420.625 550.539062 408.109375 C 552.761719 405.421875 554.632812 402.378906 556.035156 399.339844 C 556.855469 397.46875 557.320312 396.417969 557.320312 396.417969 C 564.574219 376.886719 555.683594 355.367188 537.441406 348.585938 Z M 555.101562 395.714844 L 554.867188 396.417969 C 554.632812 396.882812 554.398438 397.585938 553.929688 398.523438 C 552.644531 401.445312 550.890625 404.25 548.667969 406.824219 C 539.429688 418.871094 520.25 433.957031 481.890625 437.699219 C 481.773438 437.699219 481.65625 437.699219 481.542969 437.699219 C 480.605469 437.699219 479.671875 437.347656 479.085938 436.644531 C 452.304688 408.8125 447.742188 384.839844 448.5625 369.636719 C 448.5625 366.476562 449.148438 363.203125 450.082031 359.929688 C 450.433594 358.527344 450.785156 357.589844 451.019531 357.238281 C 454.292969 348.351562 460.609375 341.21875 468.675781 337.007812 C 473.472656 334.433594 478.382812 333.148438 483.527344 333.148438 C 487.15625 333.148438 490.78125 333.851562 494.171875 335.019531 C 501.421875 337.710938 507.386719 343.089844 511.011719 350.105469 L 512.0625 351.976562 L 514.050781 351.160156 C 517.910156 349.636719 521.886719 348.820312 525.980469 348.820312 C 529.605469 348.820312 533.230469 349.402344 536.621094 350.691406 C 553.695312 357.121094 561.882812 377.238281 555.101562 395.714844 Z M 555.101562 395.714844 "/></g><path style=" stroke:none;fill-rule:nonzero;fill:#5a211d;fill-opacity:1;" d="M 534.285156 357.355469 C 531.59375 356.421875 528.902344 355.835938 525.980469 355.835938 C 521.1875 355.835938 516.273438 357.238281 512.0625 360.046875 C 511.480469 360.398438 510.894531 360.632812 510.191406 360.632812 C 509.84375 360.632812 509.375 360.515625 509.023438 360.398438 C 507.972656 360.046875 507.269531 359.226562 506.917969 358.175781 C 504.578125 350.339844 499.082031 344.257812 491.832031 341.6875 C 489.144531 340.75 486.335938 340.164062 483.527344 340.164062 C 479.554688 340.164062 475.578125 341.101562 471.835938 343.089844 C 465.285156 346.480469 460.257812 352.328125 457.566406 359.460938 C 457.449219 359.8125 457.097656 360.515625 456.867188 361.683594 C 456.046875 364.375 455.695312 367.179688 455.578125 369.753906 C 454.996094 380.746094 457.683594 403.082031 482.242188 429.746094 L 483.0625 430.683594 L 484.230469 430.566406 C 520.25 426.472656 536.738281 411.269531 543.289062 402.730469 C 545.160156 400.507812 546.5625 398.171875 547.734375 395.714844 C 548.316406 394.429688 548.550781 393.726562 548.667969 393.609375 C 554.164062 378.523438 547.734375 362.269531 534.285156 357.355469 Z M 546.328125 392.675781 C 546.328125 392.792969 546.09375 393.492188 545.511719 394.546875 C 544.457031 396.882812 543.171875 398.988281 541.417969 401.09375 C 534.867188 409.515625 518.964844 424.132812 483.878906 428.109375 C 460.023438 402.265625 457.332031 380.746094 457.917969 369.871094 C 457.917969 367.296875 458.386719 364.839844 459.085938 362.269531 C 459.320312 361.214844 459.554688 360.632812 459.789062 360.28125 C 462.246094 353.613281 466.921875 348.234375 473.003906 345.078125 C 476.394531 343.324219 480.019531 342.386719 483.644531 342.386719 C 486.21875 342.386719 488.675781 342.855469 491.128906 343.675781 C 497.679688 346.128906 502.589844 351.507812 504.8125 358.644531 C 505.398438 360.398438 506.683594 361.800781 508.320312 362.386719 C 509.023438 362.617188 509.609375 362.734375 510.308594 362.734375 C 511.363281 362.734375 512.53125 362.386719 513.46875 361.800781 C 517.445312 359.226562 521.769531 357.941406 526.214844 357.941406 C 528.789062 357.941406 531.242188 358.410156 533.699219 359.226562 C 545.628906 364.023438 551.476562 378.875 546.328125 392.675781 Z M 546.328125 392.675781 "/><path style=" stroke:none;fill-rule:nonzero;fill:#5a211d;fill-opacity:1;" d="M 559.308594 468.339844 L 552.058594 463.894531 L 554.046875 455.707031 C 554.984375 451.730469 553.347656 447.753906 549.835938 445.652344 C 548.316406 444.714844 546.679688 444.246094 545.042969 444.246094 C 542.820312 444.246094 540.832031 445.066406 539.078125 446.46875 L 532.648438 451.964844 L 525.394531 447.523438 C 523.875 446.585938 522.238281 446.117188 520.484375 446.117188 C 518.261719 446.117188 516.273438 446.9375 514.519531 448.339844 C 511.363281 451.03125 510.425781 455.125 511.945312 458.867188 L 515.222656 466.699219 L 508.789062 472.199219 C 505.632812 474.886719 504.695312 478.980469 506.214844 482.839844 C 507.738281 486.347656 510.894531 488.570312 514.753906 488.570312 L 515.457031 488.570312 L 523.875 487.867188 L 527.148438 495.703125 C 528.671875 499.210938 531.828125 501.433594 535.6875 501.433594 C 535.921875 501.433594 536.15625 501.433594 536.503906 501.433594 C 540.597656 501.082031 543.875 498.277344 544.808594 494.300781 L 546.796875 486.113281 L 555.21875 485.414062 C 559.308594 485.0625 562.585938 482.253906 563.519531 478.277344 C 564.339844 474.417969 562.703125 470.558594 559.308594 468.339844 Z M 556.738281 476.757812 L 556.386719 478.511719 L 547.964844 479.214844 C 543.992188 479.566406 540.597656 482.371094 539.664062 486.347656 L 536.503906 500.03125 L 531.125 487.050781 C 529.722656 483.542969 526.332031 481.320312 522.589844 481.320312 L 521.886719 481.320312 L 507.855469 482.488281 L 518.496094 473.25 C 521.535156 470.675781 522.589844 466.351562 521.070312 462.726562 L 515.574219 449.742188 L 527.5 457.113281 C 528.902344 458.046875 530.660156 458.515625 532.296875 458.515625 C 534.519531 458.515625 536.621094 457.695312 538.261719 456.292969 L 548.902344 447.054688 L 545.628906 460.738281 C 544.691406 464.597656 546.328125 468.6875 549.835938 470.792969 C 557.089844 475.003906 557.089844 475.003906 556.738281 476.757812 Z M 556.738281 476.757812 "/><g clip-rule="nonzero" clip-path="url(#7502e9e895)"><path style=" stroke:none;fill-rule:nonzero;fill:#5a211d;fill-opacity:1;" d="M 560.480469 466.351562 L 554.75 462.84375 L 556.269531 456.292969 C 557.4375 451.265625 555.449219 446.351562 551.007812 443.664062 C 549.136719 442.492188 547.03125 441.910156 544.925781 441.910156 C 542.234375 441.910156 539.546875 442.84375 537.324219 444.714844 L 532.179688 449.042969 L 526.449219 445.535156 C 524.578125 444.363281 522.472656 443.78125 520.367188 443.78125 C 517.675781 443.78125 514.988281 444.714844 512.882812 446.585938 C 509.023438 449.976562 507.738281 455.125 509.726562 459.917969 L 512.296875 466.117188 L 507.152344 470.441406 C 503.292969 473.835938 502.007812 478.980469 503.996094 483.773438 C 505.867188 488.21875 510.074219 490.910156 514.753906 490.910156 C 515.105469 490.910156 515.339844 490.910156 515.6875 490.910156 L 522.355469 490.324219 L 524.929688 496.523438 C 526.800781 500.964844 530.890625 503.65625 535.570312 503.65625 C 535.921875 503.65625 536.273438 503.65625 536.621094 503.65625 C 541.769531 503.1875 545.863281 499.796875 547.03125 494.769531 L 548.550781 488.21875 L 555.21875 487.632812 C 560.363281 487.167969 564.457031 483.773438 565.625 478.746094 C 566.910156 473.953125 564.921875 469.039062 560.480469 466.351562 Z M 520.484375 448.691406 C 521.769531 448.691406 522.941406 449.042969 524.109375 449.742188 L 529.839844 453.253906 L 532.761719 455.007812 L 535.335938 452.785156 L 540.363281 448.457031 C 541.652344 447.40625 543.171875 446.703125 544.808594 446.703125 C 545.042969 446.703125 545.277344 446.703125 545.511719 446.703125 L 541.769531 449.976562 L 536.738281 454.304688 C 535.453125 455.355469 533.933594 455.941406 532.296875 455.941406 C 531.007812 455.941406 529.839844 455.589844 528.671875 454.890625 L 522.941406 451.382812 L 518.613281 448.808594 C 519.316406 448.808594 519.898438 448.691406 520.484375 448.691406 Z M 510.425781 474.300781 L 515.574219 469.976562 L 518.261719 467.753906 L 516.976562 464.597656 L 514.402344 458.398438 C 513.585938 456.527344 513.703125 454.65625 514.402344 453.019531 L 516.390625 457.695312 L 518.964844 463.894531 C 520.132812 466.699219 519.316406 469.859375 517.09375 471.730469 L 511.945312 476.058594 L 508.085938 479.332031 C 507.972656 477.34375 508.90625 475.589844 510.425781 474.300781 Z M 529.488281 494.886719 L 526.917969 488.6875 L 525.628906 485.53125 L 522.121094 485.761719 L 515.457031 486.347656 C 515.222656 486.347656 515.105469 486.347656 514.871094 486.347656 C 513.117188 486.347656 511.597656 485.761719 510.308594 484.59375 L 515.222656 484.125 L 521.886719 483.542969 C 522.121094 483.542969 522.238281 483.542969 522.472656 483.542969 C 525.277344 483.542969 527.734375 485.179688 528.789062 487.75 L 531.359375 493.949219 L 533.347656 498.628906 C 531.59375 498.042969 530.191406 496.757812 529.488281 494.886719 Z M 535.804688 492.3125 L 533.230469 486.113281 C 531.359375 481.789062 527.148438 478.980469 522.472656 478.980469 C 522.121094 478.980469 521.886719 478.980469 521.535156 478.980469 L 514.871094 479.566406 L 520.015625 475.238281 C 523.875 471.964844 525.160156 466.585938 523.175781 461.90625 L 520.601562 455.707031 L 526.332031 459.214844 C 528.203125 460.386719 530.308594 460.972656 532.414062 460.972656 C 535.101562 460.972656 537.792969 460.035156 540.015625 458.164062 L 545.042969 453.71875 L 543.523438 460.269531 C 542.351562 465.179688 544.457031 470.210938 548.785156 472.898438 C 548.785156 472.898438 554.632812 476.40625 554.515625 476.40625 L 547.847656 476.992188 C 542.820312 477.34375 538.609375 480.96875 537.441406 485.878906 Z M 561.179688 477.929688 C 560.480469 480.96875 558.140625 482.957031 555.101562 483.191406 L 548.433594 483.773438 L 544.925781 484.007812 L 544.105469 487.402344 L 542.585938 493.949219 C 542.117188 495.9375 540.949219 497.457031 539.429688 498.277344 L 540.597656 493.363281 L 542.117188 486.816406 C 542.820312 483.890625 545.277344 481.785156 548.199219 481.554688 L 554.867188 480.96875 L 558.375 480.734375 L 559.078125 477.226562 C 559.777344 473.835938 558.960938 473.367188 551.125 468.6875 C 548.550781 467.167969 547.382812 464.128906 547.964844 461.203125 L 549.488281 454.65625 L 550.65625 449.742188 C 551.707031 451.265625 552.058594 453.136719 551.589844 455.125 L 550.070312 461.671875 L 549.253906 465.0625 L 552.175781 466.816406 L 557.90625 470.328125 C 560.597656 472.082031 561.882812 474.886719 561.179688 477.929688 Z M 561.179688 477.929688 "/><path style=" stroke:none;fill-rule:nonzero;fill:#5a211d;fill-opacity:1;" d="M 560.480469 466.351562 L 554.75 462.84375 L 556.269531 456.292969 C 557.4375 451.265625 555.449219 446.351562 551.007812 443.664062 C 549.136719 442.492188 547.03125 441.910156 544.925781 441.910156 C 542.234375 441.910156 539.546875 442.84375 537.324219 444.714844 L 532.179688 449.042969 L 526.449219 445.535156 C 524.578125 444.363281 522.472656 443.78125 520.367188 443.78125 C 517.675781 443.78125 514.988281 444.714844 512.882812 446.585938 C 509.023438 449.976562 507.738281 455.125 509.726562 459.917969 L 512.296875 466.117188 L 507.152344 470.441406 C 503.292969 473.835938 502.007812 478.980469 503.996094 483.773438 C 505.867188 488.21875 510.074219 490.910156 514.753906 490.910156 C 515.105469 490.910156 515.339844 490.910156 515.6875 490.910156 L 522.355469 490.324219 L 524.929688 496.523438 C 526.800781 500.964844 530.890625 503.65625 535.570312 503.65625 C 535.921875 503.65625 536.273438 503.65625 536.621094 503.65625 C 541.769531 503.1875 545.863281 499.796875 547.03125 494.769531 L 548.550781 488.21875 L 555.21875 487.632812 C 560.363281 487.167969 564.457031 483.773438 565.625 478.746094 C 566.910156 473.953125 564.921875 469.039062 560.480469 466.351562 Z M 563.402344 478.394531 C 562.46875 482.371094 559.191406 485.179688 555.101562 485.53125 L 548.433594 486.113281 L 546.679688 486.230469 L 546.328125 487.867188 L 544.808594 494.417969 C 543.875 498.394531 540.597656 501.199219 536.503906 501.550781 C 536.273438 501.550781 535.921875 501.550781 535.6875 501.550781 C 531.945312 501.550781 528.671875 499.328125 527.148438 495.820312 L 524.578125 489.621094 L 523.875 487.984375 L 522.121094 488.101562 L 515.457031 488.6875 C 515.222656 488.6875 514.988281 488.6875 514.636719 488.6875 C 510.777344 488.6875 507.503906 486.464844 506.101562 482.957031 C 504.578125 479.214844 505.515625 475.003906 508.671875 472.316406 L 513.816406 467.988281 L 515.105469 466.816406 L 514.636719 465.296875 L 512.0625 459.097656 C 510.542969 455.355469 511.480469 451.148438 514.636719 448.574219 C 516.390625 447.054688 518.496094 446.351562 520.601562 446.351562 C 522.238281 446.351562 523.992188 446.820312 525.511719 447.753906 L 531.242188 451.265625 L 532.761719 452.199219 L 534.050781 451.03125 L 539.078125 446.703125 C 540.832031 445.183594 542.9375 444.480469 545.042969 444.480469 C 546.679688 444.480469 548.433594 444.949219 549.835938 445.882812 C 553.347656 447.988281 554.984375 451.964844 554.046875 455.941406 L 552.527344 462.492188 L 552.175781 464.128906 L 553.695312 465.0625 L 559.425781 468.570312 C 562.703125 470.558594 564.339844 474.417969 563.402344 478.394531 Z M 563.402344 478.394531 "/></g><path style=" stroke:none;fill-rule:nonzero;fill:#5a211d;fill-opacity:1;" d="M 549.953125 470.792969 C 546.5625 468.6875 544.808594 464.714844 545.746094 460.738281 L 547.265625 454.1875 L 549.019531 447.054688 L 543.40625 451.847656 L 538.375 456.175781 C 536.738281 457.578125 534.519531 458.398438 532.414062 458.398438 C 530.660156 458.398438 529.019531 457.929688 527.617188 456.996094 L 521.886719 453.484375 L 515.574219 449.628906 L 518.378906 456.410156 L 520.953125 462.609375 C 522.472656 466.351562 521.535156 470.558594 518.378906 473.25 L 513.234375 477.578125 L 507.621094 482.371094 L 514.988281 481.789062 L 521.652344 481.203125 C 521.886719 481.203125 522.121094 481.203125 522.472656 481.203125 C 526.214844 481.203125 529.605469 483.425781 531.007812 486.933594 L 533.582031 493.132812 L 536.390625 499.914062 L 538.027344 492.78125 L 539.546875 486.230469 C 540.480469 482.371094 543.757812 479.449219 547.847656 479.097656 L 554.515625 478.511719 L 556.269531 478.394531 L 556.621094 476.640625 C 557.089844 475.003906 557.089844 475.003906 549.953125 470.792969 Z M 547.734375 476.757812 C 542.703125 477.109375 538.492188 480.734375 537.324219 485.644531 L 535.804688 492.195312 L 533.230469 485.996094 C 531.359375 481.671875 527.148438 478.863281 522.472656 478.863281 C 522.121094 478.863281 521.886719 478.863281 521.535156 478.863281 L 514.871094 479.449219 L 520.015625 475.121094 C 523.875 471.847656 525.160156 466.46875 523.175781 461.789062 L 520.601562 455.589844 L 526.332031 459.097656 C 528.203125 460.269531 530.308594 460.855469 532.414062 460.855469 C 535.101562 460.855469 537.792969 459.917969 540.015625 458.046875 L 545.042969 453.601562 L 543.523438 460.152344 C 542.351562 465.0625 544.457031 470.09375 548.785156 472.78125 C 548.785156 472.78125 554.632812 476.289062 554.515625 476.289062 Z M 547.734375 476.757812 "/></g></svg>