<svg xmlns="http://www.w3.org/2000/svg" xmlns:xlink="http://www.w3.org/1999/xlink" width="1080" zoomAndPan="magnify" viewBox="0 0 810 1012.49997" height="1350" preserveAspectRatio="xMidYMid meet" version="1.2"><defs><clipPath id="61c29f5493"><path d="M 0.199219 0 L 809.800781 0 L 809.800781 1012 L 0.199219 1012 Z M 0.199219 0 "/></clipPath><clipPath id="43e3ca7c9f"><path d="M 243.078125 347.925781 L 566.921875 347.925781 L 566.921875 664.269531 L 243.078125 664.269531 Z M 243.078125 347.925781 "/></clipPath></defs><g id="16ddae93a4"><g clip-rule="nonzero" clip-path="url(#61c29f5493)"><path style=" stroke:none;fill-rule:nonzero;fill:#ffffff;fill-opacity:1;" d="M 0.199219 0 L 809.800781 0 L 809.800781 1012 L 0.199219 1012 Z M 0.199219 0 "/><path style=" stroke:none;fill-rule:nonzero;fill:#ffffff;fill-opacity:1;" d="M 0.199219 0 L 809.800781 0 L 809.800781 1012 L 0.199219 1012 Z M 0.199219 0 "/></g><g clip-rule="nonzero" clip-path="url(#43e3ca7c9f)"><path style=" stroke:none;fill-rule:nonzero;fill:#5a211d;fill-opacity:1;" d="M 457.605469 514.640625 C 457.59375 514.570312 457.566406 514.5 457.550781 514.429688 C 469.453125 508.671875 466.839844 491.910156 460.589844 482.675781 C 457.167969 477.914062 452.039062 474.597656 449.074219 469.476562 C 445.261719 462.898438 446.671875 455.335938 444.53125 448.351562 C 442.734375 442.488281 439.484375 437.117188 435.210938 432.742188 C 422.207031 418.84375 398.917969 417.035156 384.667969 430.0625 C 376.574219 437.097656 372.859375 446.445312 371.945312 456.960938 C 371.609375 460.851562 371.488281 464.882812 369.804688 468.410156 C 367.214844 473.84375 361.671875 476.90625 358.132812 481.597656 C 351.433594 490.941406 348.09375 508.359375 360.488281 514.457031 C 360.367188 514.476562 347.429688 574.261719 347.339844 574.3125 C 345.261719 582.605469 352.230469 591.316406 360.78125 591.089844 C 360.78125 591.089844 457.238281 591.089844 457.238281 591.089844 C 461.449219 591.089844 465.371094 589.203125 468.011719 585.914062 C 470.640625 582.628906 471.632812 578.402344 470.71875 574.324219 Z M 443.015625 472.59375 C 446.476562 479.132812 453.820312 482.65625 456.648438 489.703125 C 459.128906 495.425781 461.550781 504.683594 454.792969 508.347656 C 450.921875 502.300781 439.707031 500.09375 433.558594 497.519531 C 432.386719 497.039062 430.421875 496.351562 429.230469 495.890625 C 427.675781 495.628906 426.125 495.355469 424.53125 495.535156 L 423.792969 491.910156 C 431.992188 485.285156 436.4375 475 435.933594 464.441406 C 437.355469 464.820312 438.773438 465.246094 440.207031 465.597656 C 440.804688 468.039062 441.746094 470.382812 443.015625 472.59375 Z M 405.101562 508.996094 C 404.957031 509.394531 403.851562 513.695312 403.585938 513.902344 C 402.90625 514.816406 401.46875 514.996094 400.714844 513.914062 C 400.714844 513.914062 391.886719 502.21875 391.886719 502.21875 C 392.769531 502.164062 393.679688 502.367188 394.453125 502.796875 C 394.445312 502.796875 405.101562 508.996094 405.101562 508.996094 Z M 388.839844 466.453125 L 388.839844 460.21875 C 397.820312 458.160156 406.410156 454.644531 414.265625 449.835938 C 418.386719 454.769531 423.445312 458.882812 429.210938 461.746094 L 429.210938 466.460938 C 429.660156 478.3125 417.585938 495.171875 404.464844 490.410156 C 395.074219 486.429688 388.777344 476.632812 388.839844 466.453125 Z M 399.914062 498.195312 L 400.359375 495.945312 C 405.742188 498.777344 412.378906 498.804688 417.742188 495.910156 L 418.207031 498.195312 L 409.0625 503.523438 Z M 423.675781 502.796875 C 424.441406 502.347656 425.363281 502.167969 426.238281 502.199219 L 417.394531 513.921875 C 416.550781 515 415.242188 514.792969 414.550781 513.914062 C 414.289062 513.746094 413.160156 509.363281 413.019531 509 Z M 428.308594 434.761719 C 435.027344 440.535156 439.394531 449.5 439.394531 458.40625 C 432.03125 456.371094 424.441406 451.847656 419.597656 445.683594 C 420.601562 444.675781 428.996094 435.316406 428.308594 434.761719 Z M 389.089844 435.144531 C 398.207031 427.074219 411.960938 425.320312 422.734375 430.976562 C 413.730469 446.285156 395.667969 453.066406 378.769531 455.050781 C 379.542969 447.378906 383.207031 440.253906 389.089844 435.144531 Z M 358.871094 501.101562 C 358.890625 492.917969 362.453125 485.445312 368.894531 480.105469 C 374.355469 475.488281 377.679688 469.039062 378.453125 461.867188 C 379.671875 461.734375 380.898438 461.582031 382.117188 461.441406 C 381.238281 472.953125 385.0625 484.707031 394.300781 491.953125 L 393.578125 495.589844 C 391.800781 495.363281 389.984375 495.515625 388.300781 496.128906 L 371.050781 502.398438 C 367.917969 503.585938 365.246094 505.71875 363.238281 508.367188 C 360.609375 506.9375 358.871094 504.164062 358.871094 501.101562 Z M 462.761719 581.710938 C 461.410156 583.398438 459.398438 584.371094 457.238281 584.371094 L 441.765625 584.371094 L 441.765625 565.175781 C 441.765625 563.316406 440.257812 561.8125 438.398438 561.8125 C 436.539062 561.8125 435.035156 563.316406 435.035156 565.175781 L 435.035156 584.371094 L 383.085938 584.371094 L 383.085938 565.175781 C 383.085938 563.316406 381.582031 561.8125 379.722656 561.8125 C 377.863281 561.8125 376.355469 563.316406 376.355469 565.175781 L 376.355469 584.371094 L 360.78125 584.371094 C 356.40625 584.480469 352.84375 580.027344 353.910156 575.773438 C 353.910156 575.773438 367.035156 515.984375 367.035156 515.984375 C 367.183594 515.289062 367.421875 514.589844 367.773438 513.890625 C 368.890625 511.476562 370.890625 509.636719 373.371094 508.710938 L 385.132812 504.4375 L 395.335938 517.953125 C 398.566406 522.570312 405.933594 522.417969 409.0625 517.800781 C 412.164062 522.410156 419.570312 522.570312 422.785156 517.96875 C 422.785156 517.96875 432.96875 504.46875 432.96875 504.46875 L 444.621094 508.695312 C 447.789062 509.859375 450.265625 512.671875 451.023438 516.023438 C 451.023438 516.023438 464.144531 575.785156 464.144531 575.785156 C 464.609375 577.867188 464.109375 580.035156 462.761719 581.710938 Z M 549.464844 396.449219 L 509.09375 396.449219 L 509.09375 362.054688 C 509.09375 354.28125 502.769531 347.957031 495 347.957031 L 323.089844 347.957031 C 315.300781 347.957031 308.960938 354.28125 308.960938 362.054688 L 308.960938 405.820312 L 262.902344 405.820312 C 251.976562 405.828125 243.085938 414.710938 243.085938 425.636719 L 243.085938 476.972656 C 243.085938 487.902344 251.976562 496.792969 262.902344 496.792969 L 307.253906 496.792969 L 308.960938 498.183594 L 308.960938 649.960938 C 308.960938 657.753906 315.300781 664.089844 323.089844 664.089844 L 495.003906 664.089844 C 502.777344 664.089844 509.101562 657.753906 509.101562 649.960938 L 509.101562 477.363281 L 511.671875 475.261719 L 549.472656 475.261719 C 559.089844 475.261719 566.921875 467.429688 566.921875 457.8125 L 566.921875 413.890625 C 566.914062 404.273438 559.085938 396.449219 549.464844 396.449219 Z M 315.6875 362.054688 C 315.6875 357.988281 319.007812 354.6875 323.089844 354.6875 L 495.003906 354.6875 C 499.070312 354.6875 502.371094 357.996094 502.371094 362.054688 L 502.371094 396.4375 L 494.128906 396.4375 L 494.128906 366.296875 C 494.128906 364.433594 492.625 362.929688 490.761719 362.929688 L 444.640625 362.929688 C 440.40625 363.113281 441.359375 367.667969 441.273438 370.535156 C 441.273438 372.390625 439.75 373.902344 437.871094 373.902344 L 380.171875 373.902344 C 378.320312 373.902344 376.808594 372.390625 376.808594 370.535156 L 376.808594 366.296875 C 376.808594 364.433594 375.304688 362.929688 373.441406 362.929688 L 327.289062 362.929688 C 325.425781 362.929688 323.921875 364.433594 323.921875 366.296875 C 323.921875 366.296875 323.921875 405.828125 323.921875 405.828125 L 315.679688 405.828125 L 315.679688 362.054688 Z M 473.46875 447.257812 C 472.535156 459.113281 473.785156 471.582031 487.398438 474.898438 L 487.398438 480.402344 L 485.417969 486.042969 L 484.121094 489.730469 C 483.296875 491.859375 485.132812 494.382812 487.398438 494.195312 L 487.398438 629.65625 L 330.660156 629.65625 L 330.660156 515.898438 C 331.359375 516.386719 333.582031 518.488281 334.394531 518.691406 C 336.945312 519.65625 339.714844 517.019531 338.710938 514.410156 C 338.710938 514.410156 332.507812 496.753906 332.507812 496.753906 C 342.871094 496.128906 351.117188 487.496094 351.117188 476.972656 L 351.117188 425.636719 C 351.136719 414.476562 341.808594 405.476562 330.664062 405.820312 L 330.664062 369.660156 L 370.097656 369.660156 C 369.675781 375.515625 374.269531 380.65625 380.191406 380.625 C 380.191406 380.625 437.882812 380.625 437.882812 380.625 C 443.820312 380.652344 448.4375 375.515625 448.011719 369.660156 L 487.40625 369.660156 L 487.40625 396.804688 C 478.648438 398.550781 473.53125 406.691406 473.472656 415.179688 C 473.195312 425.855469 473.46875 436.578125 473.46875 447.257812 Z M 310.582031 490.824219 C 309.980469 490.332031 309.230469 490.0625 308.453125 490.0625 L 262.902344 490.0625 C 255.691406 490.0625 249.816406 484.1875 249.816406 476.972656 L 249.816406 425.636719 C 249.816406 418.417969 255.691406 412.550781 262.902344 412.550781 L 331.300781 412.550781 C 338.515625 412.550781 344.386719 418.425781 344.386719 425.636719 L 344.386719 476.972656 C 344.386719 484.195312 338.515625 490.0625 331.300781 490.0625 C 331.300781 490.0625 327.769531 490.0625 327.769531 490.0625 C 325.515625 489.996094 323.796875 492.441406 324.59375 494.542969 C 324.59375 494.542969 328.390625 505.351562 328.390625 505.351562 Z M 502.371094 649.96875 C 502.371094 654.050781 499.0625 657.371094 495.003906 657.371094 L 323.089844 657.371094 C 319.007812 657.371094 315.6875 654.050781 315.6875 649.96875 L 315.6875 503.679688 L 323.929688 510.410156 L 323.929688 633.019531 C 323.929688 634.882812 325.433594 636.386719 327.292969 636.386719 L 490.761719 636.386719 C 492.625 636.386719 494.128906 634.882812 494.128906 633.019531 L 494.128906 489.609375 L 502.371094 482.867188 Z M 560.183594 457.816406 C 560.183594 463.730469 555.375 468.535156 549.464844 468.535156 L 510.464844 468.535156 C 509.691406 468.535156 508.9375 468.800781 508.339844 469.296875 C 504.484375 472.441406 498.324219 477.488281 494.445312 480.65625 L 497.132812 473.011719 C 497.816406 471.203125 496.636719 469.039062 494.757812 468.628906 C 494.191406 468.453125 491.542969 468.5625 490.921875 468.535156 C 485.152344 468.535156 480.171875 463.792969 480.203125 457.816406 C 480.203125 457.816406 480.203125 413.898438 480.203125 413.898438 C 480.117188 408.09375 485.203125 403.148438 490.921875 403.179688 C 490.921875 403.179688 549.472656 403.179688 549.472656 403.179688 C 555.382812 403.179688 560.191406 407.984375 560.191406 413.898438 L 560.191406 457.816406 Z M 531.160156 411.972656 C 526.992188 411.972656 523.089844 413.632812 520.195312 416.613281 C 505.683594 402.390625 484.414062 423.378906 498.414062 438.089844 C 498.414062 438.089844 517.824219 457.5 517.824219 457.5 C 519.078125 458.800781 521.332031 458.800781 522.582031 457.5 C 522.582031 457.5 541.980469 438.089844 541.980469 438.089844 C 551.636719 428.992188 544.386719 411.574219 531.160156 411.972656 Z M 537.222656 433.328125 L 520.207031 450.355469 L 503.175781 433.328125 C 501.558594 431.707031 500.667969 429.5625 500.667969 427.277344 C 500.410156 419.890625 510.257812 415.769531 515.296875 421.226562 C 515.296875 421.226562 517.832031 423.757812 517.832031 423.757812 C 519.082031 425.066406 521.347656 425.058594 522.59375 423.753906 C 522.59375 423.753906 525.113281 421.21875 525.113281 421.21875 C 533.324219 413.59375 544.996094 425.078125 537.222656 433.328125 Z M 356.800781 403.726562 C 358.140625 404.476562 361.410156 405.441406 362 407.039062 C 363.023438 408.925781 363.949219 412.753906 366.75 412.558594 C 370.660156 412.679688 370.230469 406.804688 373.105469 405.445312 C 373.105469 405.445312 376.707031 403.730469 376.707031 403.730469 C 379.222656 402.632812 379.222656 398.761719 376.707031 397.65625 C 375.367188 396.898438 372.097656 395.941406 371.507812 394.339844 C 370.484375 392.457031 369.558594 388.625 366.757812 388.824219 C 363.957031 388.625 363.03125 392.441406 362.007812 394.335938 C 361.429688 395.929688 358.128906 396.894531 356.808594 397.648438 C 354.28125 398.746094 354.28125 402.621094 356.800781 403.726562 Z M 366.742188 399.304688 C 367.164062 399.808594 367.621094 400.269531 368.121094 400.683594 C 367.621094 401.097656 367.15625 401.558594 366.742188 402.0625 C 366.332031 401.558594 365.867188 401.097656 365.367188 400.683594 C 365.867188 400.269531 366.332031 399.808594 366.742188 399.304688 Z M 407.640625 609.203125 C 406.300781 608.453125 403.03125 607.488281 402.441406 605.890625 C 401.417969 604.003906 400.492188 600.175781 397.691406 600.371094 C 393.78125 600.25 394.210938 606.128906 391.335938 607.488281 C 391.335938 607.488281 387.734375 609.203125 387.734375 609.203125 C 385.222656 610.300781 385.222656 614.175781 387.734375 615.273438 C 389.082031 616.03125 392.34375 616.988281 392.9375 618.59375 C 393.957031 620.480469 394.886719 624.308594 397.683594 624.105469 C 400.484375 624.304688 401.414062 620.488281 402.433594 618.59375 C 403.011719 616.996094 406.3125 616.03125 407.636719 615.273438 C 410.15625 614.183594 410.164062 610.300781 407.640625 609.203125 Z M 397.691406 613.625 C 397.273438 613.121094 396.816406 612.65625 396.308594 612.246094 C 396.808594 611.832031 397.273438 611.367188 397.691406 610.867188 C 398.105469 611.367188 398.566406 611.832031 399.070312 612.246094 C 398.566406 612.65625 398.105469 613.121094 397.691406 613.625 Z M 444.070312 427.359375 C 445.410156 428.109375 448.683594 429.066406 449.261719 430.671875 C 450.285156 432.558594 451.210938 436.386719 454.019531 436.191406 C 457.929688 436.3125 457.5 430.445312 460.367188 429.074219 C 460.367188 429.074219 463.96875 427.359375 463.96875 427.359375 C 466.484375 426.261719 466.488281 422.378906 463.96875 421.28125 C 462.621094 420.527344 459.359375 419.574219 458.769531 417.96875 C 457.746094 416.082031 456.820312 412.253906 454.019531 412.449219 C 451.21875 412.253906 450.292969 416.082031 449.261719 417.972656 C 448.691406 419.566406 445.382812 420.53125 444.070312 421.28125 C 441.554688 422.386719 441.546875 426.261719 444.070312 427.359375 Z M 454.019531 422.945312 C 454.429688 423.449219 454.894531 423.910156 455.394531 424.324219 C 454.894531 424.734375 454.429688 425.199219 454.019531 425.703125 C 453.605469 425.199219 453.140625 424.734375 452.640625 424.324219 C 453.140625 423.910156 453.605469 423.449219 454.019531 422.945312 Z M 327.902344 463.125 C 329.953125 459.691406 327.105469 454.941406 325.972656 451.691406 C 335.484375 442.40625 328.996094 425.789062 315.769531 425.351562 L 313.578125 419.699219 C 310.519531 411.71875 297.960938 414.832031 298.796875 423.246094 L 279.050781 437.847656 L 273.714844 439.910156 C 255.519531 447.460938 264.324219 474.371094 283.292969 469.753906 L 295.703125 486.695312 C 296.347656 487.570312 297.363281 488.074219 298.417969 488.074219 C 298.695312 488.074219 298.988281 488.035156 299.261719 487.964844 L 310.863281 484.941406 C 312.761719 484.492188 313.894531 482.277344 313.152344 480.472656 C 313.152344 480.472656 309.929688 472.15625 309.929688 472.15625 C 308.675781 468.765625 304.417969 470.480469 301.875 470.765625 L 297.304688 466.476562 L 314.84375 464.667969 C 318.101562 469.144531 325.695312 468.167969 327.902344 463.125 Z M 283.367188 462.695312 C 272.046875 467.679688 264.769531 451.0625 276.148438 446.191406 C 276.148438 446.191406 278.765625 445.175781 278.765625 445.175781 C 280.382812 449.359375 283.648438 457.773438 285.265625 461.957031 Z M 298.480469 476.796875 C 299.914062 478.402344 302.859375 477.324219 304.632812 477.121094 L 305.507812 479.375 L 299.773438 480.867188 L 293.070312 471.722656 Z M 291.832031 460.269531 L 284.753906 442 L 301.039062 429.957031 L 311.980469 458.191406 Z M 321.839844 460.222656 C 321.59375 460.898438 320.269531 461.0625 320.082031 460.445312 C 320.082031 460.445312 305.507812 422.832031 305.507812 422.832031 C 305.4375 422.652344 305.488281 422.46875 305.546875 422.355469 C 305.71875 421.828125 306.988281 421.410156 307.3125 422.132812 C 308.847656 426.09375 311.945312 434.089844 313.484375 438.0625 C 313.484375 438.0625 321.882812 459.746094 321.882812 459.746094 C 321.949219 459.925781 321.890625 460.101562 321.839844 460.222656 Z M 323.058594 444.164062 L 322.742188 443.351562 L 318.683594 432.875 C 320.804688 433.824219 322.417969 435.484375 323.238281 437.601562 C 324.074219 439.753906 323.96875 442.082031 323.058594 444.164062 Z M 323.058594 444.164062 "/></g></g></svg>