<svg width="1637" height="584" viewBox="0 0 1637 584" fill="none" xmlns="http://www.w3.org/2000/svg">
<path d="M174.082 3.11092C132.166 6.21094 92.8292 23.3304 62.1514 50.9023L226.168 91.8174L174.082 3.11092Z" fill="#5B1E1B"/>
<path d="M45.069 68.4559C26.5938 90.0206 12.6886 116.078 5.36486 145.531C2.33732 157.707 0.595613 169.898 0 181.972L145.523 93.5149L45.069 68.4559Z" fill="#5B1E1B"/>
<path d="M311.19 48.6468C289.507 29.7973 263.213 15.6095 233.444 8.18348C222.236 5.38755 211.017 3.72092 199.886 3L285.689 151.206L311.19 48.6468Z" fill="#5B1E1B"/>
<path d="M202.487 379C243.816 375.802 282.593 358.965 313 331.933L149.136 291.056L202.487 379Z" fill="#5B1E1B"/>
<path d="M65.3315 334.028C86.9031 352.623 112.989 366.618 142.489 373.977C151.869 376.316 161.258 377.902 170.596 378.778L90.076 234.514L65.3315 334.028Z" fill="#5B1E1B"/>
<path d="M0.384023 206.017C3.6268 246.921 20.1694 285.298 46.6789 315.542L87.1273 152.872L0.384023 206.017Z" fill="#5B1E1B"/>
<path d="M380.38 364C372.167 364 365.447 361.387 360.22 356.16C354.993 350.56 352.38 343.653 352.38 335.44V98C352.38 89.7867 354.993 83.0667 360.22 77.84C365.447 72.24 372.167 69.44 380.38 69.44C388.22 69.44 394.753 72.24 399.98 77.84C405.58 83.0667 408.38 89.7867 408.38 98V160.72L402.78 136.64C405.767 126.187 410.247 116.48 416.22 107.52C422.567 98.56 430.033 90.72 438.62 84C447.207 77.28 456.727 72.0534 467.18 68.32C478.007 64.5867 489.207 62.72 500.78 62.72C510.487 62.72 518.887 65.3333 525.98 70.56C533.073 75.7867 536.62 82.32 536.62 90.16C536.62 100.24 534.007 107.707 528.78 112.56C523.553 117.04 517.767 119.28 511.42 119.28C505.82 119.28 500.407 118.16 495.18 115.92C489.953 113.307 483.793 112 476.7 112C468.86 112 460.833 114.053 452.62 118.16C444.407 122.267 436.94 128.427 430.22 136.64C423.5 144.48 418.087 153.813 413.98 164.64C410.247 175.467 408.38 187.6 408.38 201.04V335.44C408.38 343.653 405.58 350.56 399.98 356.16C394.753 361.387 388.22 364 380.38 364Z" fill="#5B1E1B"/>
<path d="M688.664 369.6C657.678 369.6 630.798 363.253 608.024 350.56C585.251 337.493 567.518 319.76 554.824 297.36C542.504 274.587 536.344 248.64 536.344 219.52C536.344 186.667 542.878 158.667 555.944 135.52C569.384 112 586.744 94.08 608.024 81.76C629.304 69.0667 651.891 62.72 675.784 62.72C694.078 62.72 711.438 66.4533 727.864 73.92C744.291 81.0133 758.851 91.0933 771.544 104.16C784.611 116.853 794.878 131.973 802.344 149.52C809.811 166.693 813.731 185.547 814.104 206.08C813.731 213.547 810.744 219.707 805.144 224.56C799.544 229.413 793.011 231.84 785.544 231.84H567.704L554.264 184.24H764.824L754.184 194.32V180.32C753.438 167.253 749.144 155.867 741.304 146.16C733.464 136.08 723.758 128.427 712.184 123.2C700.611 117.6 688.478 114.8 675.784 114.8C664.584 114.8 653.758 116.667 643.304 120.4C633.224 123.76 624.078 129.36 615.864 137.2C608.024 145.04 601.678 155.493 596.824 168.56C592.344 181.253 590.104 197.12 590.104 216.16C590.104 236.693 594.398 254.613 602.984 269.92C611.571 285.227 623.144 297.173 637.704 305.76C652.264 313.973 668.318 318.08 685.864 318.08C699.678 318.08 711.064 316.773 720.024 314.16C728.984 311.173 736.451 307.627 742.424 303.52C748.398 299.413 753.624 295.493 758.104 291.76C763.704 288.4 769.304 286.72 774.904 286.72C781.624 286.72 787.224 289.147 791.704 294C796.184 298.48 798.424 303.893 798.424 310.24C798.424 318.453 794.318 325.92 786.104 332.64C776.024 342.347 762.024 350.933 744.104 358.4C726.558 365.867 708.078 369.6 688.664 369.6Z" fill="#5B1E1B"/>
<path d="M1098.55 64.96C1106.76 64.96 1113.48 67.76 1118.71 73.36C1123.94 78.5867 1126.55 85.3067 1126.55 93.52V335.44C1126.55 343.653 1123.94 350.56 1118.71 356.16C1113.48 361.387 1106.76 364 1098.55 364C1090.71 364 1083.99 361.387 1078.39 356.16C1073.16 350.56 1070.55 343.653 1070.55 335.44V295.12L1082.31 296.8C1082.31 303.52 1079.51 310.987 1073.91 319.2C1068.68 327.413 1061.4 335.44 1052.07 343.28C1042.74 350.747 1031.72 357.093 1019.03 362.32C1006.34 367.173 992.709 369.6 978.149 369.6C952.389 369.6 929.243 363.067 908.709 350C888.176 336.56 871.936 318.267 859.989 295.12C848.043 271.973 842.069 245.653 842.069 216.16C842.069 185.92 848.043 159.413 859.989 136.64C871.936 113.493 887.989 95.3867 908.149 82.32C928.683 69.2533 951.456 62.72 976.469 62.72C992.523 62.72 1007.27 65.3333 1020.71 70.56C1034.52 75.7867 1046.47 82.5067 1056.55 90.72C1066.63 98.9333 1074.28 107.707 1079.51 117.04C1085.11 126 1087.91 134.587 1087.91 142.8L1070.55 144.48V93.52C1070.55 85.68 1073.16 78.96 1078.39 73.36C1083.99 67.76 1090.71 64.96 1098.55 64.96ZM984.309 318.08C1001.86 318.08 1017.35 313.6 1030.79 304.64C1044.23 295.68 1054.68 283.547 1062.15 268.24C1069.62 252.56 1073.35 235.2 1073.35 216.16C1073.35 196.747 1069.62 179.387 1062.15 164.08C1054.68 148.773 1044.23 136.64 1030.79 127.68C1017.35 118.72 1001.86 114.24 984.309 114.24C967.136 114.24 951.829 118.72 938.389 127.68C925.323 136.64 914.869 148.773 907.029 164.08C899.563 179.387 895.829 196.747 895.829 216.16C895.829 235.2 899.563 252.56 907.029 268.24C914.869 283.547 925.323 295.68 938.389 304.64C951.829 313.6 967.136 318.08 984.309 318.08Z" fill="#5B1E1B"/>
<path d="M1178.68 72.8H1310.28C1317.75 72.8 1323.91 75.4133 1328.76 80.64C1333.99 85.4933 1336.6 91.6533 1336.6 99.12C1336.6 106.213 1333.99 112.187 1328.76 117.04C1323.91 121.893 1317.75 124.32 1310.28 124.32H1178.68C1171.22 124.32 1164.87 121.893 1159.64 117.04C1154.79 111.813 1152.36 105.653 1152.36 98.56C1152.36 91.0933 1154.79 84.9333 1159.64 80.08C1164.87 75.2267 1171.22 72.8 1178.68 72.8ZM1237.48 0C1245.7 0 1252.42 2.8 1257.64 8.39999C1262.87 13.6267 1265.48 20.3467 1265.48 28.56V288.4C1265.48 295.12 1266.6 300.533 1268.84 304.64C1271.08 308.747 1274.07 311.547 1277.8 313.04C1281.91 314.533 1286.02 315.28 1290.12 315.28C1294.23 315.28 1297.78 314.533 1300.76 313.04C1304.12 311.547 1308.04 310.8 1312.52 310.8C1317 310.8 1321.11 312.853 1324.84 316.96C1328.58 321.067 1330.44 326.667 1330.44 333.76C1330.44 342.72 1325.59 350 1315.88 355.6C1306.18 361.2 1295.72 364 1284.52 364C1278.18 364 1270.71 363.44 1262.12 362.32C1253.54 361.2 1245.14 358.4 1236.92 353.92C1229.08 349.44 1222.55 342.347 1217.32 332.64C1212.1 322.56 1209.48 308.56 1209.48 290.64V28.56C1209.48 20.3467 1212.1 13.6267 1217.32 8.39999C1222.92 2.8 1229.64 0 1237.48 0Z" fill="#5B1E1B"/>
<path d="M1510.68 369.6C1479.7 369.6 1452.82 363.253 1430.04 350.56C1407.27 337.493 1389.54 319.76 1376.84 297.36C1364.52 274.587 1358.36 248.64 1358.36 219.52C1358.36 186.667 1364.9 158.667 1377.96 135.52C1391.4 112 1408.76 94.08 1430.04 81.76C1451.32 69.0667 1473.91 62.72 1497.8 62.72C1516.1 62.72 1533.46 66.4533 1549.88 73.92C1566.31 81.0133 1580.87 91.0933 1593.56 104.16C1606.63 116.853 1616.9 131.973 1624.36 149.52C1631.83 166.693 1635.75 185.547 1636.12 206.08C1635.75 213.547 1632.76 219.707 1627.16 224.56C1621.56 229.413 1615.03 231.84 1607.56 231.84H1389.72L1376.28 184.24H1586.84L1576.2 194.32V180.32C1575.46 167.253 1571.16 155.867 1563.32 146.16C1555.48 136.08 1545.78 128.427 1534.2 123.2C1522.63 117.6 1510.5 114.8 1497.8 114.8C1486.6 114.8 1475.78 116.667 1465.32 120.4C1455.24 123.76 1446.1 129.36 1437.88 137.2C1430.04 145.04 1423.7 155.493 1418.84 168.56C1414.36 181.253 1412.12 197.12 1412.12 216.16C1412.12 236.693 1416.42 254.613 1425 269.92C1433.59 285.227 1445.16 297.173 1459.72 305.76C1474.28 313.973 1490.34 318.08 1507.88 318.08C1521.7 318.08 1533.08 316.773 1542.04 314.16C1551 311.173 1558.47 307.627 1564.44 303.52C1570.42 299.413 1575.64 295.493 1580.12 291.76C1585.72 288.4 1591.32 286.72 1596.92 286.72C1603.64 286.72 1609.24 289.147 1613.72 294C1618.2 298.48 1620.44 303.893 1620.44 310.24C1620.44 318.453 1616.34 325.92 1608.12 332.64C1598.04 342.347 1584.04 350.933 1566.12 358.4C1548.58 365.867 1530.1 369.6 1510.68 369.6Z" fill="#5B1E1B"/>
<path d="M325.535 427.708C328.05 427.708 330.455 428.692 332.751 430.66C335.047 432.519 336.195 435.088 336.195 438.368C336.195 439.352 336.031 440.445 335.703 441.648L303.395 536.768C302.739 538.736 301.537 540.267 299.787 541.36C298.147 542.344 296.398 542.891 294.539 543C292.681 543 290.822 542.453 288.963 541.36C287.214 540.267 285.847 538.681 284.863 536.604L260.591 481.5L262.067 482.484L238.123 536.604C237.139 538.681 235.718 540.267 233.859 541.36C232.11 542.453 230.306 543 228.447 543C226.698 542.891 224.949 542.344 223.199 541.36C221.45 540.267 220.247 538.736 219.591 536.768L187.283 441.648C186.955 440.445 186.791 439.352 186.791 438.368C186.791 435.088 187.939 432.519 190.235 430.66C192.641 428.692 195.101 427.708 197.615 427.708C199.693 427.708 201.606 428.255 203.355 429.348C205.214 430.441 206.471 432.027 207.127 434.104L233.203 513.152L229.595 512.988L252.883 457.064C253.758 455.096 255.015 453.565 256.655 452.472C258.295 451.269 260.154 450.723 262.231 450.832C264.309 450.723 266.167 451.269 267.807 452.472C269.447 453.565 270.65 455.096 271.415 457.064L292.735 510.528L290.111 512.168L315.859 434.104C316.515 432.027 317.773 430.441 319.631 429.348C321.49 428.255 323.458 427.708 325.535 427.708ZM378.238 532.996C378.238 535.839 377.2 538.244 375.122 540.212C373.045 542.071 370.64 543 367.906 543C364.845 543 362.385 542.071 360.526 540.212C358.668 538.244 357.738 535.839 357.738 532.996V438.204C357.738 435.361 358.722 433.011 360.69 431.152C362.658 429.184 365.173 428.2 368.234 428.2C370.858 428.2 373.154 429.184 375.122 431.152C377.2 433.011 378.238 435.361 378.238 438.204V532.996ZM448.33 543C445.269 543 442.754 542.071 440.786 540.212C438.818 538.244 437.834 535.839 437.834 532.996V437.876H459.154V532.996C459.154 535.839 458.116 538.244 456.038 540.212C454.07 542.071 451.501 543 448.33 543ZM412.086 447.06C409.244 447.06 406.838 446.185 404.87 444.436C403.012 442.687 402.082 440.391 402.082 437.548C402.082 434.705 403.012 432.464 404.87 430.824C406.838 429.075 409.244 428.2 412.086 428.2H484.902C487.745 428.2 490.096 429.075 491.954 430.824C493.922 432.573 494.906 434.869 494.906 437.712C494.906 440.555 493.922 442.851 491.954 444.6C490.096 446.24 487.745 447.06 484.902 447.06H412.086ZM529.179 428.2C531.803 428.2 534.099 429.184 536.067 431.152C538.144 433.011 539.183 435.361 539.183 438.204V532.996C539.183 535.839 538.144 538.244 536.067 540.212C533.989 542.071 531.584 543 528.851 543C525.789 543 523.329 542.071 521.471 540.212C519.612 538.244 518.683 535.839 518.683 532.996V438.204C518.683 435.361 519.667 433.011 521.635 431.152C523.603 429.184 526.117 428.2 529.179 428.2ZM601.831 428.2C604.892 428.2 607.352 429.184 609.211 431.152C611.069 433.011 611.999 435.361 611.999 438.204V532.996C611.999 535.839 611.015 538.244 609.047 540.212C607.188 542.071 604.673 543 601.503 543C598.879 543 596.528 542.071 594.451 540.212C592.483 538.244 591.499 535.839 591.499 532.996V438.204C591.499 435.361 592.537 433.011 594.615 431.152C596.692 429.184 599.097 428.2 601.831 428.2ZM528.687 475.924H601.831V494.784H528.687V475.924ZM743.038 428.2C748.724 428.2 754.026 429.84 758.946 433.12C763.976 436.4 768.021 440.828 771.082 446.404C774.144 451.98 775.674 458.212 775.674 465.1C775.674 471.879 774.144 478.056 771.082 483.632C768.021 489.208 763.976 493.691 758.946 497.08C754.026 500.36 748.724 502 743.038 502H712.862L714.502 499.048V532.996C714.502 535.839 713.628 538.244 711.878 540.212C710.129 542.071 707.833 543 704.99 543C702.257 543 700.016 542.071 698.266 540.212C696.517 538.244 695.642 535.839 695.642 532.996V438.204C695.642 435.361 696.572 433.011 698.43 431.152C700.398 429.184 702.804 428.2 705.646 428.2H743.038ZM743.038 483.304C745.116 483.304 747.138 482.429 749.106 480.68C751.074 478.931 752.714 476.689 754.026 473.956C755.338 471.113 755.994 468.161 755.994 465.1C755.994 461.929 755.338 458.977 754.026 456.244C752.714 453.511 751.074 451.324 749.106 449.684C747.138 447.935 745.116 447.06 743.038 447.06H712.534L714.502 444.108V485.928L712.698 483.304H743.038ZM812.827 543C809.765 543 807.032 542.071 804.627 540.212C802.221 538.244 801.019 535.839 801.019 532.996V438.204C801.019 435.361 801.948 433.011 803.807 431.152C805.775 429.184 808.18 428.2 811.023 428.2H858.255C863.94 428.2 869.243 429.731 874.163 432.792C879.192 435.744 883.237 439.899 886.299 445.256C889.36 450.504 890.891 456.572 890.891 463.46C890.891 467.615 890.016 471.66 888.267 475.596C886.627 479.532 884.331 483.085 881.379 486.256C878.536 489.427 875.311 491.887 871.703 493.636L871.867 489.864C874.928 491.504 877.443 493.472 879.411 495.768C881.488 497.955 883.073 500.36 884.167 502.984C885.369 505.499 886.08 508.232 886.299 511.184C886.736 513.917 887.009 516.323 887.119 518.4C887.337 520.477 887.665 522.227 888.103 523.648C888.649 525.069 889.633 526.163 891.055 526.928C893.46 528.349 894.936 530.427 895.483 533.16C896.139 535.784 895.537 538.135 893.679 540.212C892.476 541.633 890.945 542.563 889.087 543C887.228 543.328 885.369 543.328 883.511 543C881.652 542.563 880.121 542.016 878.919 541.36C877.06 540.267 875.201 538.681 873.343 536.604C871.484 534.417 869.953 531.52 868.751 527.912C867.657 524.304 867.111 519.657 867.111 513.972C867.111 512.113 866.783 510.419 866.127 508.888C865.471 507.248 864.541 505.881 863.339 504.788C862.136 503.585 860.605 502.711 858.747 502.164C856.888 501.508 854.701 501.18 852.187 501.18H819.059L821.519 497.408V532.996C821.519 535.839 820.753 538.244 819.223 540.212C817.692 542.071 815.56 543 812.827 543ZM819.223 484.288H857.435C859.403 484.288 861.316 483.413 863.175 481.664C865.033 479.805 866.564 477.345 867.767 474.284C868.969 471.113 869.571 467.669 869.571 463.952C869.571 459.141 868.259 455.151 865.635 451.98C863.12 448.7 860.387 447.06 857.435 447.06H819.551L821.519 441.812V488.224L819.223 484.288ZM930.173 428.2H985.113C987.955 428.2 990.306 429.129 992.165 430.988C994.133 432.737 995.117 435.033 995.117 437.876C995.117 440.609 994.133 442.851 992.165 444.6C990.306 446.24 987.955 447.06 985.113 447.06H939.193L940.669 444.272V476.252L939.357 474.94H977.733C980.575 474.94 982.926 475.869 984.785 477.728C986.753 479.477 987.737 481.773 987.737 484.616C987.737 487.349 986.753 489.591 984.785 491.34C982.926 492.98 980.575 493.8 977.733 493.8H939.849L940.669 492.488V525.616L939.357 524.14H985.113C987.955 524.14 990.306 525.124 992.165 527.092C994.133 528.951 995.117 531.137 995.117 533.652C995.117 536.385 994.133 538.627 992.165 540.376C990.306 542.125 987.955 543 985.113 543H930.173C927.33 543 924.925 542.071 922.957 540.212C921.098 538.244 920.169 535.839 920.169 532.996V438.204C920.169 435.361 921.098 433.011 922.957 431.152C924.925 429.184 927.33 428.2 930.173 428.2ZM1100.94 433.776C1103.78 435.197 1105.42 437.439 1105.86 440.5C1106.41 443.561 1105.64 446.349 1103.56 448.864C1102.14 450.832 1100.28 451.925 1097.99 452.144C1095.8 452.363 1093.56 451.925 1091.26 450.832C1088.64 449.629 1085.85 448.7 1082.9 448.044C1080.06 447.388 1077.05 447.06 1073.88 447.06C1067.98 447.06 1062.67 447.989 1057.97 449.848C1053.38 451.707 1049.44 454.385 1046.16 457.884C1042.88 461.273 1040.37 465.319 1038.62 470.02C1036.98 474.721 1036.16 479.915 1036.16 485.6C1036.16 492.269 1037.09 498.064 1038.95 502.984C1040.92 507.904 1043.59 512.004 1046.98 515.284C1050.37 518.564 1054.36 521.024 1058.96 522.664C1063.55 524.195 1068.52 524.96 1073.88 524.96C1076.83 524.96 1079.78 524.687 1082.74 524.14C1085.69 523.593 1088.53 522.609 1091.26 521.188C1093.56 520.095 1095.8 519.712 1097.99 520.04C1100.28 520.368 1102.2 521.516 1103.73 523.484C1105.91 526.217 1106.68 529.06 1106.02 532.012C1105.48 534.855 1103.84 536.932 1101.1 538.244C1098.26 539.665 1095.31 540.868 1092.25 541.852C1089.3 542.727 1086.29 543.383 1083.23 543.82C1080.17 544.367 1077.05 544.64 1073.88 544.64C1066.01 544.64 1058.52 543.383 1051.41 540.868C1044.41 538.353 1038.13 534.636 1032.55 529.716C1027.09 524.796 1022.77 518.673 1019.6 511.348C1016.43 503.913 1014.84 495.331 1014.84 485.6C1014.84 477.181 1016.26 469.419 1019.1 462.312C1022.06 455.205 1026.16 449.083 1031.4 443.944C1036.76 438.696 1043.05 434.651 1050.26 431.808C1057.48 428.856 1065.35 427.38 1073.88 427.38C1078.69 427.38 1083.39 427.927 1087.98 429.02C1092.58 430.113 1096.89 431.699 1100.94 433.776ZM1150.46 532.996C1150.46 535.839 1149.42 538.244 1147.34 540.212C1145.27 542.071 1142.86 543 1140.13 543C1137.07 543 1134.61 542.071 1132.75 540.212C1130.89 538.244 1129.96 535.839 1129.96 532.996V438.204C1129.96 435.361 1130.94 433.011 1132.91 431.152C1134.88 429.184 1137.4 428.2 1140.46 428.2C1143.08 428.2 1145.38 429.184 1147.34 431.152C1149.42 433.011 1150.46 435.361 1150.46 438.204V532.996ZM1287.3 485.6C1287.3 493.8 1285.93 501.453 1283.2 508.56C1280.47 515.667 1276.59 521.953 1271.56 527.42C1266.64 532.777 1260.73 536.987 1253.84 540.048C1247.07 543.109 1239.63 544.64 1231.54 544.64C1223.45 544.64 1216.02 543.109 1209.24 540.048C1202.46 536.987 1196.55 532.777 1191.52 527.42C1186.6 521.953 1182.78 515.667 1180.04 508.56C1177.31 501.453 1175.94 493.8 1175.94 485.6C1175.94 477.4 1177.31 469.747 1180.04 462.64C1182.78 455.533 1186.6 449.301 1191.52 443.944C1196.55 438.477 1202.46 434.213 1209.24 431.152C1216.02 428.091 1223.45 426.56 1231.54 426.56C1239.63 426.56 1247.07 428.091 1253.84 431.152C1260.73 434.213 1266.64 438.477 1271.56 443.944C1276.59 449.301 1280.47 455.533 1283.2 462.64C1285.93 469.747 1287.3 477.4 1287.3 485.6ZM1265.98 485.6C1265.98 478.275 1264.5 471.66 1261.55 465.756C1258.6 459.743 1254.56 454.987 1249.42 451.488C1244.28 447.989 1238.32 446.24 1231.54 446.24C1224.76 446.24 1218.8 447.989 1213.66 451.488C1208.53 454.987 1204.48 459.688 1201.53 465.592C1198.69 471.496 1197.26 478.165 1197.26 485.6C1197.26 492.925 1198.69 499.595 1201.53 505.608C1204.48 511.512 1208.53 516.213 1213.66 519.712C1218.8 523.211 1224.76 524.96 1231.54 524.96C1238.32 524.96 1244.28 523.211 1249.42 519.712C1254.56 516.213 1258.6 511.512 1261.55 505.608C1264.5 499.595 1265.98 492.925 1265.98 485.6ZM1394.19 428.036C1397.04 428.036 1399.33 429.02 1401.08 430.988C1402.83 432.847 1403.71 435.197 1403.71 438.04V497.408C1403.71 506.483 1401.74 514.519 1397.8 521.516C1393.98 528.513 1388.67 533.98 1381.89 537.916C1375.12 541.852 1367.24 543.82 1358.28 543.82C1349.31 543.82 1341.39 541.852 1334.5 537.916C1327.72 533.98 1322.36 528.513 1318.43 521.516C1314.6 514.519 1312.69 506.483 1312.69 497.408V438.04C1312.69 435.197 1313.67 432.847 1315.64 430.988C1317.61 429.02 1320.12 428.036 1323.18 428.036C1325.7 428.036 1327.94 429.02 1329.91 430.988C1331.98 432.847 1333.02 435.197 1333.02 438.04V497.408C1333.02 502.875 1334.17 507.631 1336.47 511.676C1338.87 515.612 1341.99 518.673 1345.81 520.86C1349.75 523.047 1353.9 524.14 1358.28 524.14C1362.98 524.14 1367.35 523.047 1371.4 520.86C1375.44 518.673 1378.72 515.612 1381.24 511.676C1383.75 507.631 1385.01 502.875 1385.01 497.408V438.04C1385.01 435.197 1385.83 432.847 1387.47 430.988C1389.11 429.02 1391.35 428.036 1394.19 428.036ZM1470.18 544.64C1462.52 544.64 1455.64 543.711 1449.51 541.852C1443.39 539.884 1437.54 536.495 1431.97 531.684C1430.54 530.481 1429.45 529.115 1428.69 527.584C1427.92 526.053 1427.54 524.523 1427.54 522.992C1427.54 520.477 1428.41 518.291 1430.16 516.432C1432.02 514.464 1434.32 513.48 1437.05 513.48C1439.13 513.48 1440.99 514.136 1442.63 515.448C1446.78 518.837 1450.88 521.407 1454.93 523.156C1459.08 524.905 1464.16 525.78 1470.18 525.78C1474.22 525.78 1477.94 525.179 1481.33 523.976C1484.72 522.664 1487.45 520.969 1489.53 518.892C1491.61 516.705 1492.65 514.245 1492.65 511.512C1492.65 508.232 1491.66 505.444 1489.69 503.148C1487.73 500.852 1484.72 498.939 1480.67 497.408C1476.63 495.768 1471.49 494.511 1465.26 493.636C1459.35 492.761 1454.16 491.449 1449.68 489.7C1445.19 487.841 1441.42 485.545 1438.36 482.812C1435.41 479.969 1433.17 476.689 1431.64 472.972C1430.11 469.145 1429.34 464.881 1429.34 460.18C1429.34 453.073 1431.15 447.005 1434.75 441.976C1438.47 436.947 1443.45 433.12 1449.68 430.496C1455.91 427.872 1462.8 426.56 1470.34 426.56C1477.45 426.56 1484.01 427.653 1490.02 429.84C1496.14 431.917 1501.12 434.596 1504.95 437.876C1508.12 440.391 1509.7 443.288 1509.7 446.568C1509.7 448.973 1508.77 451.16 1506.91 453.128C1505.05 455.096 1502.87 456.08 1500.35 456.08C1498.71 456.08 1497.24 455.588 1495.93 454.604C1494.18 453.073 1491.83 451.652 1488.87 450.34C1485.92 448.919 1482.81 447.771 1479.53 446.896C1476.25 445.912 1473.18 445.42 1470.34 445.42C1465.64 445.42 1461.65 446.021 1458.37 447.224C1455.2 448.427 1452.79 450.067 1451.15 452.144C1449.51 454.221 1448.69 456.627 1448.69 459.36C1448.69 462.64 1449.62 465.373 1451.48 467.56C1453.45 469.637 1456.24 471.332 1459.85 472.644C1463.45 473.847 1467.77 474.94 1472.8 475.924C1479.36 477.127 1485.1 478.548 1490.02 480.188C1495.05 481.828 1499.21 483.96 1502.49 486.584C1505.77 489.099 1508.23 492.324 1509.87 496.26C1511.51 500.087 1512.33 504.788 1512.33 510.364C1512.33 517.471 1510.36 523.593 1506.42 528.732C1502.49 533.871 1497.29 537.807 1490.84 540.54C1484.5 543.273 1477.61 544.64 1470.18 544.64Z" fill="#5B1E1B"/>
</svg>
