<svg xmlns="http://www.w3.org/2000/svg" xmlns:xlink="http://www.w3.org/1999/xlink" width="1080" zoomAndPan="magnify" viewBox="0 0 810 1012.49997" height="1350" preserveAspectRatio="xMidYMid meet" version="1.2"><defs><clipPath id="a0829586a3"><path d="M 0.199219 0 L 809.800781 0 L 809.800781 1012 L 0.199219 1012 Z M 0.199219 0 "/></clipPath><clipPath id="d5b67a9e0e"><path d="M 319 452 L 517 452 L 517 607.546875 L 319 607.546875 Z M 319 452 "/></clipPath><clipPath id="a7ba705bee"><path d="M 501 404.394531 L 566.921875 404.394531 L 566.921875 469 L 501 469 Z M 501 404.394531 "/></clipPath><clipPath id="02312ff441"><path d="M 243.078125 518 L 309 518 L 309 584 L 243.078125 584 Z M 243.078125 518 "/></clipPath></defs><g id="26ca44795b"><g clip-rule="nonzero" clip-path="url(#a0829586a3)"><path style=" stroke:none;fill-rule:nonzero;fill:#ffffff;fill-opacity:1;" d="M 0.199219 0 L 809.800781 0 L 809.800781 1012 L 0.199219 1012 Z M 0.199219 0 "/><path style=" stroke:none;fill-rule:nonzero;fill:#ffffff;fill-opacity:1;" d="M 0.199219 0 L 809.800781 0 L 809.800781 1012 L 0.199219 1012 Z M 0.199219 0 "/></g><g clip-rule="nonzero" clip-path="url(#d5b67a9e0e)"><path style=" stroke:none;fill-rule:nonzero;fill:#5a211d;fill-opacity:1;" d="M 494.515625 452.890625 L 341.824219 452.890625 C 341.09375 452.890625 340.367188 452.929688 339.644531 453.003906 C 338.917969 453.074219 338.199219 453.183594 337.484375 453.328125 C 336.773438 453.472656 336.066406 453.652344 335.371094 453.863281 C 334.671875 454.078125 333.988281 454.324219 333.316406 454.605469 C 332.644531 454.882812 331.984375 455.195312 331.34375 455.539062 C 330.703125 455.886719 330.078125 456.261719 329.472656 456.667969 C 328.867188 457.070312 328.285156 457.507812 327.722656 457.96875 C 327.160156 458.433594 326.621094 458.921875 326.109375 459.4375 C 325.59375 459.953125 325.105469 460.492188 324.644531 461.054688 C 324.183594 461.621094 323.75 462.203125 323.34375 462.8125 C 322.941406 463.417969 322.566406 464.042969 322.222656 464.683594 C 321.878906 465.328125 321.570312 465.984375 321.292969 466.65625 C 321.011719 467.332031 320.769531 468.015625 320.554688 468.714844 C 320.34375 469.410156 320.167969 470.117188 320.027344 470.832031 C 319.882812 471.546875 319.777344 472.265625 319.707031 472.988281 C 319.632812 473.714844 319.597656 474.441406 319.597656 475.171875 L 319.597656 585.265625 C 319.597656 585.992188 319.632812 586.71875 319.707031 587.445312 C 319.777344 588.167969 319.882812 588.890625 320.027344 589.601562 C 320.167969 590.316406 320.34375 591.023438 320.554688 591.722656 C 320.769531 592.417969 321.011719 593.101562 321.292969 593.777344 C 321.570312 594.449219 321.878906 595.105469 322.222656 595.75 C 322.566406 596.394531 322.941406 597.015625 323.34375 597.621094 C 323.75 598.230469 324.183594 598.8125 324.644531 599.378906 C 325.105469 599.941406 325.59375 600.480469 326.109375 600.996094 C 326.621094 601.511719 327.160156 602 327.722656 602.464844 C 328.285156 602.925781 328.867188 603.363281 329.472656 603.769531 C 330.078125 604.171875 330.703125 604.546875 331.34375 604.894531 C 331.984375 605.238281 332.644531 605.550781 333.316406 605.832031 C 333.988281 606.109375 334.671875 606.355469 335.371094 606.570312 C 336.066406 606.785156 336.773438 606.960938 337.484375 607.105469 C 338.199219 607.25 338.917969 607.359375 339.644531 607.429688 C 340.367188 607.503906 341.09375 607.542969 341.824219 607.542969 L 494.515625 607.542969 C 495.242188 607.542969 495.972656 607.507812 496.695312 607.4375 C 497.421875 607.363281 498.144531 607.257812 498.859375 607.113281 C 499.574219 606.96875 500.28125 606.792969 500.980469 606.582031 C 501.675781 606.367188 502.363281 606.121094 503.035156 605.84375 C 503.710938 605.5625 504.371094 605.25 505.011719 604.90625 C 505.65625 604.5625 506.28125 604.1875 506.886719 603.78125 C 507.492188 603.378906 508.078125 602.945312 508.644531 602.480469 C 509.207031 602.019531 509.746094 601.527344 510.261719 601.011719 C 510.777344 600.496094 511.269531 599.957031 511.730469 599.394531 C 512.195312 598.828125 512.628906 598.242188 513.03125 597.636719 C 513.4375 597.03125 513.8125 596.40625 514.15625 595.761719 C 514.5 595.121094 514.8125 594.460938 515.09375 593.789062 C 515.371094 593.113281 515.617188 592.425781 515.832031 591.730469 C 516.042969 591.03125 516.21875 590.324219 516.363281 589.609375 C 516.507812 588.894531 516.613281 588.171875 516.6875 587.445312 C 516.757812 586.722656 516.792969 585.992188 516.792969 585.265625 L 516.792969 475.171875 C 516.792969 474.441406 516.757812 473.710938 516.6875 472.988281 C 516.613281 472.261719 516.507812 471.539062 516.363281 470.824219 C 516.21875 470.109375 516.042969 469.402344 515.832031 468.703125 C 515.617188 468.007812 515.371094 467.320312 515.09375 466.648438 C 514.8125 465.972656 514.5 465.3125 514.15625 464.671875 C 513.8125 464.027344 513.4375 463.402344 513.03125 462.796875 C 512.628906 462.191406 512.195312 461.605469 511.730469 461.039062 C 511.269531 460.476562 510.777344 459.9375 510.261719 459.421875 C 509.746094 458.90625 509.207031 458.417969 508.644531 457.953125 C 508.078125 457.492188 507.492188 457.054688 506.886719 456.652344 C 506.28125 456.246094 505.65625 455.871094 505.011719 455.527344 C 504.371094 455.183594 503.710938 454.871094 503.035156 454.589844 C 502.363281 454.3125 501.675781 454.066406 500.980469 453.851562 C 500.28125 453.640625 499.574219 453.464844 498.859375 453.320312 C 498.144531 453.179688 497.421875 453.070312 496.695312 453 C 495.972656 452.925781 495.242188 452.890625 494.515625 452.890625 Z M 466.445312 458.351562 L 448.421875 492.480469 L 426.359375 492.480469 L 444.382812 458.351562 Z M 409.976562 458.351562 L 391.957031 492.480469 L 369.949219 492.480469 L 387.96875 458.351562 Z M 325.058594 475.171875 C 325.058594 474.621094 325.085938 474.070312 325.140625 473.523438 C 325.191406 472.976562 325.273438 472.433594 325.378906 471.894531 C 325.488281 471.355469 325.621094 470.824219 325.777344 470.296875 C 325.9375 469.769531 326.121094 469.253906 326.332031 468.746094 C 326.542969 468.238281 326.777344 467.738281 327.035156 467.253906 C 327.292969 466.769531 327.574219 466.296875 327.878906 465.839844 C 328.183594 465.382812 328.511719 464.941406 328.859375 464.515625 C 329.207031 464.089844 329.574219 463.683594 329.964844 463.292969 C 330.351562 462.90625 330.757812 462.535156 331.183594 462.1875 C 331.605469 461.835938 332.046875 461.507812 332.503906 461.203125 C 332.960938 460.894531 333.429688 460.613281 333.914062 460.351562 C 334.398438 460.09375 334.894531 459.855469 335.402344 459.644531 C 335.910156 459.433594 336.425781 459.246094 336.953125 459.085938 C 337.480469 458.925781 338.011719 458.789062 338.550781 458.683594 C 339.089844 458.574219 339.632812 458.492188 340.179688 458.4375 C 340.726562 458.378906 341.273438 458.351562 341.824219 458.351562 L 353.566406 458.351562 L 335.542969 492.480469 L 325.058594 492.480469 Z M 511.332031 585.265625 C 511.332031 585.816406 511.304688 586.363281 511.253906 586.914062 C 511.199219 587.460938 511.117188 588.003906 511.007812 588.546875 C 510.902344 589.085938 510.769531 589.617188 510.609375 590.144531 C 510.449219 590.671875 510.261719 591.191406 510.050781 591.699219 C 509.839844 592.207031 509.605469 592.707031 509.347656 593.191406 C 509.085938 593.675781 508.804688 594.148438 508.496094 594.605469 C 508.191406 595.066406 507.863281 595.507812 507.515625 595.933594 C 507.164062 596.359375 506.796875 596.765625 506.40625 597.15625 C 506.015625 597.546875 505.609375 597.914062 505.183594 598.265625 C 504.757812 598.613281 504.316406 598.941406 503.855469 599.246094 C 503.398438 599.554688 502.925781 599.835938 502.441406 600.097656 C 501.957031 600.355469 501.457031 600.589844 500.949219 600.800781 C 500.441406 601.011719 499.921875 601.199219 499.394531 601.359375 C 498.867188 601.519531 498.335938 601.652344 497.792969 601.757812 C 497.253906 601.867188 496.710938 601.949219 496.164062 602.003906 C 495.613281 602.054688 495.066406 602.082031 494.515625 602.082031 L 341.824219 602.082031 C 341.273438 602.082031 340.726562 602.054688 340.179688 602 C 339.632812 601.941406 339.089844 601.859375 338.550781 601.753906 C 338.011719 601.644531 337.480469 601.507812 336.953125 601.347656 C 336.425781 601.1875 335.910156 601 335.402344 600.789062 C 334.894531 600.578125 334.398438 600.34375 333.914062 600.082031 C 333.429688 599.820312 332.960938 599.539062 332.503906 599.230469 C 332.046875 598.925781 331.605469 598.597656 331.183594 598.25 C 330.757812 597.898438 330.351562 597.527344 329.964844 597.140625 C 329.574219 596.75 329.207031 596.34375 328.859375 595.917969 C 328.511719 595.492188 328.183594 595.050781 327.878906 594.59375 C 327.574219 594.136719 327.292969 593.664062 327.035156 593.179688 C 326.777344 592.695312 326.542969 592.195312 326.332031 591.6875 C 326.121094 591.179688 325.9375 590.664062 325.777344 590.136719 C 325.621094 589.609375 325.488281 589.078125 325.378906 588.539062 C 325.273438 588 325.191406 587.457031 325.140625 586.910156 C 325.085938 586.363281 325.058594 585.8125 325.058594 585.265625 L 325.058594 497.941406 L 511.332031 497.941406 Z M 511.332031 492.480469 L 482.828125 492.480469 L 500.300781 459.441406 C 501.105469 459.734375 501.878906 460.085938 502.628906 460.496094 C 503.378906 460.910156 504.089844 461.375 504.765625 461.894531 C 505.445312 462.414062 506.078125 462.980469 506.667969 463.597656 C 507.261719 464.214844 507.800781 464.871094 508.292969 465.570312 C 508.78125 466.269531 509.214844 467.003906 509.59375 467.769531 C 509.972656 468.535156 510.292969 469.324219 510.550781 470.136719 C 510.808594 470.949219 511.003906 471.78125 511.132812 472.625 C 511.265625 473.46875 511.332031 474.316406 511.332031 475.171875 Z M 511.332031 492.480469 "/></g><path style=" stroke:none;fill-rule:nonzero;fill:#5a211d;fill-opacity:1;" d="M 399.546875 583.1875 C 401.542969 584.335938 403.691406 584.917969 405.992188 584.9375 C 408.292969 584.925781 410.441406 584.34375 412.433594 583.1875 L 448.96875 562.054688 C 449.457031 561.773438 449.925781 561.460938 450.371094 561.117188 C 450.816406 560.773438 451.242188 560.402344 451.636719 560.003906 C 452.035156 559.605469 452.40625 559.183594 452.75 558.734375 C 453.09375 558.289062 453.40625 557.820312 453.6875 557.332031 C 453.96875 556.847656 454.21875 556.339844 454.433594 555.820312 C 454.648438 555.300781 454.828125 554.769531 454.972656 554.222656 C 455.121094 553.679688 455.230469 553.128906 455.304688 552.570312 C 455.375 552.011719 455.414062 551.449219 455.414062 550.886719 C 455.414062 550.324219 455.375 549.761719 455.304688 549.203125 C 455.230469 548.644531 455.121094 548.09375 454.972656 547.550781 C 454.828125 547.003906 454.648438 546.472656 454.433594 545.953125 C 454.214844 545.433594 453.96875 544.929688 453.6875 544.441406 C 453.40625 543.953125 453.09375 543.484375 452.75 543.039062 C 452.40625 542.589844 452.035156 542.167969 451.636719 541.769531 C 451.242188 541.371094 450.816406 541 450.371094 540.65625 C 449.925781 540.3125 449.457031 540 448.96875 539.71875 L 412.433594 518.640625 C 411.453125 518.074219 410.417969 517.644531 409.324219 517.351562 C 408.226562 517.058594 407.113281 516.914062 405.984375 516.914062 C 404.851562 516.914062 403.738281 517.0625 402.644531 517.355469 C 401.550781 517.648438 400.511719 518.082031 399.53125 518.648438 C 398.550781 519.214844 397.664062 519.902344 396.863281 520.703125 C 396.0625 521.503906 395.382812 522.398438 394.816406 523.378906 C 394.253906 524.359375 393.824219 525.398438 393.535156 526.492188 C 393.242188 527.589844 393.101562 528.703125 393.101562 529.835938 L 393.101562 571.992188 C 393.097656 573.128906 393.238281 574.242188 393.53125 575.339844 C 393.820312 576.4375 394.25 577.476562 394.816406 578.460938 C 395.378906 579.445312 396.066406 580.335938 396.867188 581.136719 C 397.667969 581.941406 398.5625 582.625 399.546875 583.1875 Z M 398.5625 529.835938 C 398.554688 529.179688 398.628906 528.535156 398.792969 527.902344 C 398.957031 527.265625 399.203125 526.667969 399.53125 526.097656 C 399.855469 525.53125 400.253906 525.019531 400.71875 524.558594 C 401.1875 524.097656 401.707031 523.710938 402.277344 523.390625 C 402.835938 523.050781 403.433594 522.792969 404.0625 522.617188 C 404.695312 522.441406 405.335938 522.351562 405.992188 522.351562 C 406.644531 522.351562 407.289062 522.441406 407.917969 522.617188 C 408.550781 522.792969 409.144531 523.050781 409.703125 523.390625 L 446.238281 544.46875 C 446.519531 544.632812 446.789062 544.8125 447.046875 545.011719 C 447.304688 545.210938 447.546875 545.425781 447.777344 545.65625 C 448.007812 545.882812 448.21875 546.128906 448.417969 546.386719 C 448.613281 546.644531 448.792969 546.914062 448.957031 547.195312 C 449.117188 547.476562 449.261719 547.769531 449.386719 548.070312 C 449.511719 548.367188 449.613281 548.675781 449.699219 548.988281 C 449.78125 549.304688 449.84375 549.621094 449.886719 549.945312 C 449.929688 550.265625 449.949219 550.589844 449.949219 550.914062 C 449.949219 551.238281 449.929688 551.5625 449.886719 551.886719 C 449.84375 552.207031 449.78125 552.523438 449.699219 552.839844 C 449.613281 553.152344 449.511719 553.460938 449.386719 553.761719 C 449.261719 554.058594 449.117188 554.351562 448.957031 554.632812 C 448.792969 554.914062 448.613281 555.183594 448.417969 555.441406 C 448.21875 555.699219 448.007812 555.945312 447.777344 556.175781 C 447.546875 556.402344 447.304688 556.617188 447.046875 556.816406 C 446.789062 557.015625 446.519531 557.195312 446.238281 557.359375 L 409.703125 578.4375 C 409.144531 578.773438 408.546875 579.027344 407.917969 579.199219 C 407.285156 579.375 406.644531 579.460938 405.992188 579.460938 C 405.335938 579.460938 404.695312 579.375 404.066406 579.199219 C 403.433594 579.027344 402.839844 578.773438 402.277344 578.4375 C 401.710938 578.113281 401.195312 577.722656 400.730469 577.261719 C 400.269531 576.800781 399.875 576.285156 399.546875 575.71875 C 399.21875 575.152344 398.972656 574.554688 398.808594 573.921875 C 398.640625 573.289062 398.558594 572.648438 398.5625 571.992188 Z M 398.5625 529.835938 "/><path style=" stroke:none;fill-rule:nonzero;fill:#5a211d;fill-opacity:1;" d="M 339.371094 544.355469 C 339.734375 544.355469 340.082031 544.285156 340.417969 544.148438 C 340.75 544.007812 341.046875 543.8125 341.304688 543.554688 C 341.558594 543.300781 341.757812 543.003906 341.894531 542.671875 C 342.035156 542.335938 342.101562 541.988281 342.101562 541.625 L 342.101562 523.707031 C 342.101562 523.34375 342.035156 522.996094 341.894531 522.664062 C 341.757812 522.328125 341.558594 522.03125 341.304688 521.777344 C 341.046875 521.519531 340.75 521.324219 340.417969 521.183594 C 340.082031 521.046875 339.734375 520.976562 339.371094 520.976562 C 339.011719 520.976562 338.660156 521.046875 338.328125 521.183594 C 337.992188 521.324219 337.695312 521.519531 337.441406 521.777344 C 337.183594 522.03125 336.988281 522.328125 336.847656 522.664062 C 336.710938 522.996094 336.640625 523.34375 336.640625 523.707031 L 336.640625 541.625 C 336.640625 541.988281 336.710938 542.335938 336.847656 542.671875 C 336.988281 543.003906 337.183594 543.300781 337.441406 543.554688 C 337.695312 543.8125 337.992188 544.007812 338.328125 544.148438 C 338.660156 544.285156 339.011719 544.355469 339.371094 544.355469 Z M 339.371094 544.355469 "/><path style=" stroke:none;fill-rule:nonzero;fill:#5a211d;fill-opacity:1;" d="M 337.457031 556.371094 C 337.710938 556.621094 338.003906 556.8125 338.335938 556.949219 C 338.664062 557.082031 339.007812 557.148438 339.367188 557.148438 C 339.722656 557.148438 340.066406 557.082031 340.398438 556.949219 C 340.730469 556.8125 341.023438 556.621094 341.277344 556.371094 C 341.550781 556.109375 341.75 555.800781 341.878906 555.445312 C 342.035156 555.117188 342.105469 554.773438 342.097656 554.410156 C 342.105469 553.652344 341.832031 553.015625 341.277344 552.496094 C 341.03125 552.234375 340.742188 552.03125 340.402344 551.898438 C 339.898438 551.6875 339.375 551.636719 338.835938 551.746094 C 338.300781 551.855469 337.839844 552.105469 337.457031 552.496094 C 336.898438 553.011719 336.625 553.652344 336.636719 554.410156 C 336.625 554.773438 336.695312 555.117188 336.855469 555.445312 C 336.984375 555.800781 337.183594 556.109375 337.457031 556.371094 Z M 337.457031 556.371094 "/><path style=" stroke:none;fill-rule:nonzero;fill:#5a211d;fill-opacity:1;" d="M 494.742188 553.640625 C 495.105469 553.640625 495.453125 553.570312 495.789062 553.429688 C 496.121094 553.292969 496.417969 553.09375 496.675781 552.839844 C 496.929688 552.582031 497.128906 552.289062 497.265625 551.953125 C 497.40625 551.617188 497.472656 551.269531 497.472656 550.910156 L 497.472656 541.625 C 497.472656 541.261719 497.40625 540.914062 497.265625 540.582031 C 497.128906 540.246094 496.929688 539.949219 496.675781 539.695312 C 496.417969 539.4375 496.121094 539.242188 495.789062 539.101562 C 495.453125 538.964844 495.105469 538.894531 494.742188 538.894531 C 494.382812 538.894531 494.03125 538.964844 493.699219 539.101562 C 493.363281 539.242188 493.070312 539.4375 492.8125 539.695312 C 492.554688 539.949219 492.359375 540.246094 492.21875 540.582031 C 492.082031 540.914062 492.011719 541.261719 492.011719 541.625 L 492.011719 550.910156 C 492.011719 551.269531 492.082031 551.617188 492.21875 551.953125 C 492.359375 552.289062 492.554688 552.582031 492.8125 552.839844 C 493.070312 553.09375 493.363281 553.292969 493.699219 553.429688 C 494.03125 553.570312 494.382812 553.640625 494.742188 553.640625 Z M 494.742188 553.640625 "/><path style=" stroke:none;fill-rule:nonzero;fill:#5a211d;fill-opacity:1;" d="M 494.742188 575.210938 C 495.105469 575.210938 495.453125 575.140625 495.789062 575.003906 C 496.121094 574.863281 496.417969 574.667969 496.675781 574.410156 C 496.929688 574.15625 497.128906 573.859375 497.265625 573.523438 C 497.40625 573.191406 497.472656 572.84375 497.472656 572.480469 L 497.472656 565.707031 C 497.472656 565.347656 497.40625 564.996094 497.265625 564.664062 C 497.128906 564.328125 496.929688 564.035156 496.675781 563.777344 C 496.417969 563.519531 496.121094 563.324219 495.789062 563.183594 C 495.453125 563.046875 495.105469 562.976562 494.742188 562.976562 C 494.382812 562.976562 494.03125 563.046875 493.699219 563.183594 C 493.363281 563.324219 493.070312 563.519531 492.8125 563.777344 C 492.554688 564.035156 492.359375 564.328125 492.21875 564.664062 C 492.082031 564.996094 492.011719 565.347656 492.011719 565.707031 L 492.011719 572.480469 C 492.011719 572.84375 492.082031 573.191406 492.21875 573.523438 C 492.359375 573.859375 492.554688 574.15625 492.8125 574.410156 C 493.070312 574.667969 493.363281 574.863281 493.699219 575.003906 C 494.03125 575.140625 494.382812 575.210938 494.742188 575.210938 Z M 494.742188 575.210938 "/><g clip-rule="nonzero" clip-path="url(#a7ba705bee)"><path style=" stroke:none;fill-rule:nonzero;fill:#5a211d;fill-opacity:1;" d="M 564.523438 434.15625 L 545.683594 424.765625 L 536.289062 405.925781 C 536.0625 405.457031 535.722656 405.082031 535.28125 404.808594 C 534.839844 404.53125 534.355469 404.394531 533.832031 404.394531 C 533.316406 404.394531 532.84375 404.535156 532.410156 404.808594 C 531.976562 405.085938 531.648438 405.457031 531.429688 405.925781 L 521.984375 424.765625 L 503.140625 434.15625 C 502.6875 434.398438 502.328125 434.742188 502.066406 435.183594 C 501.800781 435.625 501.667969 436.101562 501.667969 436.617188 C 501.667969 437.128906 501.800781 437.605469 502.066406 438.046875 C 502.328125 438.488281 502.6875 438.832031 503.140625 439.074219 L 521.984375 448.464844 L 531.429688 467.304688 C 531.652344 467.765625 531.980469 468.128906 532.414062 468.398438 C 532.851562 468.664062 533.324219 468.792969 533.832031 468.78125 C 534.351562 468.792969 534.832031 468.664062 535.273438 468.398438 C 535.71875 468.132812 536.058594 467.769531 536.289062 467.304688 L 545.683594 448.464844 L 564.523438 439.074219 C 564.996094 438.84375 565.371094 438.507812 565.648438 438.066406 C 565.925781 437.621094 566.0625 437.136719 566.0625 436.613281 C 566.0625 436.09375 565.925781 435.609375 565.648438 435.164062 C 565.371094 434.722656 564.996094 434.386719 564.523438 434.15625 Z M 542.460938 443.988281 C 541.90625 444.246094 541.488281 444.644531 541.207031 445.1875 L 533.832031 459.988281 L 526.460938 445.1875 C 526.214844 444.632812 525.816406 444.230469 525.257812 443.988281 L 510.515625 436.613281 L 525.257812 429.242188 C 525.820312 428.976562 526.21875 428.558594 526.460938 427.988281 L 533.832031 413.242188 L 541.207031 427.988281 C 541.484375 428.546875 541.902344 428.964844 542.460938 429.242188 L 557.207031 436.613281 Z M 542.460938 443.988281 "/></g><g clip-rule="nonzero" clip-path="url(#02312ff441)"><path style=" stroke:none;fill-rule:nonzero;fill:#5a211d;fill-opacity:1;" d="M 306.765625 548.457031 L 287.921875 539.0625 L 278.476562 520.222656 C 278.351562 520.011719 278.203125 519.820312 278.027344 519.648438 C 277.851562 519.472656 277.660156 519.328125 277.445312 519.203125 C 277.234375 519.082031 277.007812 518.988281 276.769531 518.925781 C 276.53125 518.863281 276.292969 518.832031 276.046875 518.832031 C 275.800781 518.832031 275.558594 518.863281 275.320312 518.925781 C 275.085938 518.988281 274.859375 519.082031 274.644531 519.203125 C 274.433594 519.328125 274.238281 519.472656 274.0625 519.648438 C 273.890625 519.820312 273.742188 520.011719 273.617188 520.222656 L 264.222656 539.0625 L 245.382812 548.457031 C 244.910156 548.683594 244.535156 549.019531 244.257812 549.464844 C 243.980469 549.90625 243.84375 550.390625 243.84375 550.914062 C 243.84375 551.4375 243.980469 551.921875 244.257812 552.363281 C 244.535156 552.808594 244.910156 553.144531 245.382812 553.371094 L 264.222656 562.765625 L 273.617188 581.605469 C 273.847656 582.066406 274.1875 582.429688 274.632812 582.699219 C 275.074219 582.964844 275.554688 583.089844 276.074219 583.078125 C 276.582031 583.089844 277.054688 582.960938 277.492188 582.695312 C 277.925781 582.429688 278.253906 582.066406 278.476562 581.605469 L 287.921875 562.765625 L 306.765625 553.371094 C 307.21875 553.128906 307.578125 552.789062 307.84375 552.347656 C 308.105469 551.90625 308.238281 551.429688 308.238281 550.914062 C 308.238281 550.398438 308.105469 549.921875 307.84375 549.480469 C 307.578125 549.039062 307.21875 548.699219 306.765625 548.457031 Z M 284.648438 558.285156 C 284.078125 558.519531 283.675781 558.917969 283.445312 559.488281 L 276.074219 574.234375 L 268.699219 559.488281 C 268.433594 558.929688 268.015625 558.527344 267.445312 558.285156 L 252.699219 550.914062 L 267.445312 543.542969 C 267.984375 543.269531 268.40625 542.867188 268.699219 542.339844 L 276.074219 527.542969 L 283.445312 542.339844 C 283.707031 542.882812 284.105469 543.28125 284.648438 543.542969 L 299.390625 550.914062 Z M 284.648438 558.285156 "/></g></g></svg>