<svg xmlns="http://www.w3.org/2000/svg" xmlns:xlink="http://www.w3.org/1999/xlink" width="1080" zoomAndPan="magnify" viewBox="0 0 810 1012.49997" height="1350" preserveAspectRatio="xMidYMid meet" version="1.2"><defs><clipPath id="c1eb90f624"><path d="M 0.199219 0 L 809.800781 0 L 809.800781 1012 L 0.199219 1012 Z M 0.199219 0 "/></clipPath><clipPath id="d9903ed57a"><path d="M 503 464 L 566.921875 464 L 566.921875 535 L 503 535 Z M 503 464 "/></clipPath><clipPath id="4f3c9ea873"><path d="M 441 590 L 541 590 L 541 660.996094 L 441 660.996094 Z M 441 590 "/></clipPath><clipPath id="479da29c2d"><path d="M 378 350.648438 L 456 350.648438 L 456 425 L 378 425 Z M 378 350.648438 "/></clipPath><clipPath id="2926a72e69"><path d="M 243.078125 465 L 310 465 L 310 537 L 243.078125 537 Z M 243.078125 465 "/></clipPath><clipPath id="31f6d87fd6"><path d="M 307 596 L 362 596 L 362 660.996094 L 307 660.996094 Z M 307 596 "/></clipPath></defs><g id="ecb86c8599"><g clip-rule="nonzero" clip-path="url(#c1eb90f624)"><path style=" stroke:none;fill-rule:nonzero;fill:#ffffff;fill-opacity:1;" d="M 0.199219 0 L 809.800781 0 L 809.800781 1012 L 0.199219 1012 Z M 0.199219 0 "/><path style=" stroke:none;fill-rule:nonzero;fill:#ffffff;fill-opacity:1;" d="M 0.199219 0 L 809.800781 0 L 809.800781 1012 L 0.199219 1012 Z M 0.199219 0 "/></g><path style=" stroke:none;fill-rule:nonzero;fill:#5a211d;fill-opacity:1;" d="M 456.898438 381.773438 C 456.898438 383.5625 458.347656 385.011719 460.136719 385.011719 L 470.820312 385.011719 C 472.609375 385.011719 474.058594 383.5625 474.058594 381.773438 C 474.058594 379.984375 472.609375 378.535156 470.820312 378.535156 L 460.136719 378.535156 C 458.347656 378.535156 456.898438 379.984375 456.898438 381.773438 Z M 456.898438 381.773438 "/><path style=" stroke:none;fill-rule:nonzero;fill:#5a211d;fill-opacity:1;" d="M 459.066406 377.605469 C 459.746094 377.605469 460.433594 377.390625 461.019531 376.949219 L 469.535156 370.496094 C 470.960938 369.417969 471.242188 367.386719 470.160156 365.960938 C 469.082031 364.535156 467.050781 364.253906 465.625 365.332031 L 457.109375 371.785156 C 455.683594 372.867188 455.402344 374.898438 456.480469 376.324219 C 457.121094 377.164062 458.085938 377.605469 459.066406 377.605469 Z M 459.066406 377.605469 "/><path style=" stroke:none;fill-rule:nonzero;fill:#5a211d;fill-opacity:1;" d="M 469.535156 393.050781 L 461.019531 386.601562 C 459.59375 385.519531 457.5625 385.800781 456.484375 387.226562 C 455.402344 388.652344 455.683594 390.683594 457.109375 391.765625 L 465.625 398.214844 C 466.210938 398.660156 466.898438 398.875 467.578125 398.875 C 468.558594 398.875 469.527344 398.429688 470.164062 397.589844 C 471.242188 396.164062 470.960938 394.132812 469.535156 393.050781 Z M 469.535156 393.050781 "/><g clip-rule="nonzero" clip-path="url(#d9903ed57a)"><path style=" stroke:none;fill-rule:nonzero;fill:#5a211d;fill-opacity:1;" d="M 563.308594 466.476562 L 530.230469 466.476562 C 530.039062 465.960938 529.84375 465.445312 529.648438 464.933594 L 525.628906 466.476562 L 506.527344 466.476562 C 504.738281 466.476562 503.289062 467.929688 503.289062 469.714844 L 503.289062 513.316406 C 503.289062 515.105469 504.738281 516.554688 506.527344 516.554688 L 519.617188 516.554688 L 519.617188 531.382812 C 519.617188 532.714844 520.4375 533.914062 521.679688 534.398438 C 522.0625 534.546875 522.460938 534.621094 522.855469 534.621094 C 523.746094 534.621094 524.613281 534.253906 525.238281 533.574219 L 531.132812 527.167969 C 530.976562 528.527344 530.800781 529.890625 530.601562 531.234375 L 537.007812 532.179688 C 537.292969 530.265625 537.535156 528.316406 537.734375 526.386719 L 532.367188 525.832031 L 536.101562 521.769531 L 538.121094 521.90625 C 538.179688 521.078125 538.230469 520.242188 538.273438 519.410156 L 540.902344 516.554688 L 563.308594 516.554688 C 565.097656 516.554688 566.546875 515.105469 566.546875 513.316406 L 566.546875 469.714844 C 566.546875 467.925781 565.097656 466.476562 563.308594 466.476562 Z M 560.070312 510.078125 L 539.480469 510.078125 C 538.574219 510.078125 537.710938 510.457031 537.097656 511.121094 L 526.097656 523.078125 L 526.097656 513.316406 C 526.097656 511.527344 524.644531 510.078125 522.855469 510.078125 L 509.765625 510.078125 L 509.765625 472.957031 L 560.070312 472.957031 Z M 560.070312 510.078125 "/></g><path style=" stroke:none;fill-rule:nonzero;fill:#5a211d;fill-opacity:1;" d="M 516.410156 506.996094 C 518.09375 507.609375 519.949219 506.738281 520.558594 505.058594 L 521.921875 501.316406 L 529.714844 501.316406 L 531.074219 505.058594 C 531.550781 506.375 532.792969 507.191406 534.117188 507.191406 C 534.484375 507.191406 534.859375 507.128906 535.222656 507 C 536.90625 506.386719 537.773438 504.53125 537.160156 502.847656 L 536.976562 502.339844 C 538.445312 505.382812 541.5625 507.484375 545.164062 507.484375 C 546.644531 507.484375 548.039062 507.128906 549.277344 506.496094 C 549.828125 506.933594 550.523438 507.191406 551.28125 507.191406 C 553.066406 507.191406 554.519531 505.742188 554.519531 503.953125 L 554.519531 481.097656 C 554.519531 479.308594 553.066406 477.859375 551.28125 477.859375 C 549.492188 477.859375 548.039062 479.308594 548.039062 481.097656 L 548.039062 489.785156 C 547.136719 489.480469 546.167969 489.316406 545.164062 489.316406 C 540.152344 489.316406 536.078125 493.390625 536.078125 498.402344 C 536.078125 499.164062 536.175781 499.910156 536.351562 500.617188 L 528.863281 479.992188 C 528.398438 478.710938 527.179688 477.859375 525.816406 477.859375 C 524.453125 477.859375 523.238281 478.710938 522.773438 479.992188 L 514.472656 502.847656 C 513.859375 504.527344 514.730469 506.386719 516.410156 506.996094 Z M 545.160156 495.792969 C 546.597656 495.792969 547.765625 496.960938 547.765625 498.398438 C 547.765625 499.835938 546.597656 501.003906 545.160156 501.003906 C 543.722656 501.003906 542.554688 499.835938 542.554688 498.398438 C 542.554688 496.960938 543.722656 495.792969 545.160156 495.792969 Z M 525.816406 490.585938 L 527.359375 494.835938 L 524.273438 494.835938 Z M 525.816406 490.585938 "/><path style=" stroke:none;fill-rule:nonzero;fill:#5a211d;fill-opacity:1;" d="M 288.292969 497.742188 L 270.421875 487.421875 C 269.417969 486.84375 268.183594 486.84375 267.183594 487.421875 C 266.179688 488.003906 265.5625 489.070312 265.5625 490.226562 L 265.5625 510.863281 C 265.5625 512.019531 266.179688 513.089844 267.183594 513.667969 C 267.683594 513.957031 268.242188 514.101562 268.800781 514.101562 C 269.363281 514.101562 269.921875 513.957031 270.421875 513.667969 L 288.292969 503.347656 C 289.292969 502.769531 289.910156 501.703125 289.910156 500.542969 C 289.910156 499.386719 289.292969 498.320312 288.292969 497.742188 Z M 272.042969 505.253906 L 272.042969 495.839844 L 280.195312 500.546875 Z M 272.042969 505.253906 "/><path style=" stroke:none;fill-rule:nonzero;fill:#5a211d;fill-opacity:1;" d="M 292.757812 478.214844 L 298.394531 478.214844 L 298.394531 483.261719 L 292.757812 483.261719 Z M 292.757812 478.214844 "/><path style=" stroke:none;fill-rule:nonzero;fill:#5a211d;fill-opacity:1;" d="M 252.875 478.214844 L 258.511719 478.214844 L 258.511719 483.261719 L 252.875 483.261719 Z M 252.875 478.214844 "/><path style=" stroke:none;fill-rule:nonzero;fill:#5a211d;fill-opacity:1;" d="M 262.847656 478.214844 L 268.480469 478.214844 L 268.480469 483.261719 L 262.847656 483.261719 Z M 262.847656 478.214844 "/><path style=" stroke:none;fill-rule:nonzero;fill:#5a211d;fill-opacity:1;" d="M 282.789062 478.214844 L 288.425781 478.214844 L 288.425781 483.261719 L 282.789062 483.261719 Z M 282.789062 478.214844 "/><path style=" stroke:none;fill-rule:nonzero;fill:#5a211d;fill-opacity:1;" d="M 272.816406 478.214844 L 278.453125 478.214844 L 278.453125 483.261719 L 272.816406 483.261719 Z M 272.816406 478.214844 "/><path style=" stroke:none;fill-rule:nonzero;fill:#5a211d;fill-opacity:1;" d="M 272.816406 518.175781 L 278.453125 518.175781 L 278.453125 523.222656 L 272.816406 523.222656 Z M 272.816406 518.175781 "/><path style=" stroke:none;fill-rule:nonzero;fill:#5a211d;fill-opacity:1;" d="M 292.757812 518.175781 L 298.394531 518.175781 L 298.394531 523.222656 L 292.757812 523.222656 Z M 292.757812 518.175781 "/><path style=" stroke:none;fill-rule:nonzero;fill:#5a211d;fill-opacity:1;" d="M 262.847656 518.175781 L 268.480469 518.175781 L 268.480469 523.222656 L 262.847656 523.222656 Z M 262.847656 518.175781 "/><path style=" stroke:none;fill-rule:nonzero;fill:#5a211d;fill-opacity:1;" d="M 282.789062 518.175781 L 288.425781 518.175781 L 288.425781 523.222656 L 282.789062 523.222656 Z M 282.789062 518.175781 "/><path style=" stroke:none;fill-rule:nonzero;fill:#5a211d;fill-opacity:1;" d="M 252.875 518.175781 L 258.511719 518.175781 L 258.511719 523.222656 L 252.875 523.222656 Z M 252.875 518.175781 "/><path style=" stroke:none;fill-rule:nonzero;fill:#5a211d;fill-opacity:1;" d="M 317.15625 619.570312 C 317.15625 621.148438 318.4375 622.429688 320.019531 622.429688 L 347.382812 622.429688 C 348.964844 622.429688 350.246094 621.148438 350.246094 619.570312 C 350.246094 617.988281 348.964844 616.707031 347.382812 616.707031 L 320.019531 616.707031 C 318.4375 616.707031 317.15625 617.988281 317.15625 619.570312 Z M 317.15625 619.570312 "/><path style=" stroke:none;fill-rule:nonzero;fill:#5a211d;fill-opacity:1;" d="M 347.382812 626.410156 L 320.019531 626.410156 C 318.4375 626.410156 317.15625 627.691406 317.15625 629.269531 C 317.15625 630.851562 318.4375 632.128906 320.019531 632.128906 L 347.382812 632.128906 C 348.964844 632.128906 350.246094 630.851562 350.246094 629.269531 C 350.246094 627.691406 348.964844 626.410156 347.382812 626.410156 Z M 347.382812 626.410156 "/><path style=" stroke:none;fill-rule:nonzero;fill:#5a211d;fill-opacity:1;" d="M 347.382812 636.109375 L 320.019531 636.109375 C 318.4375 636.109375 317.15625 637.390625 317.15625 638.972656 C 317.15625 640.550781 318.4375 641.832031 320.019531 641.832031 L 347.382812 641.832031 C 348.964844 641.832031 350.246094 640.550781 350.246094 638.972656 C 350.246094 637.390625 348.964844 636.109375 347.382812 636.109375 Z M 347.382812 636.109375 "/><path style=" stroke:none;fill-rule:nonzero;fill:#5a211d;fill-opacity:1;" d="M 347.382812 645.8125 L 320.019531 645.8125 C 318.4375 645.8125 317.15625 647.09375 317.15625 648.671875 C 317.15625 650.25 318.4375 651.53125 320.019531 651.53125 L 347.382812 651.53125 C 348.964844 651.53125 350.246094 650.25 350.246094 648.671875 C 350.246094 647.09375 348.964844 645.8125 347.382812 645.8125 Z M 347.382812 645.8125 "/><g clip-rule="nonzero" clip-path="url(#4f3c9ea873)"><path style=" stroke:none;fill-rule:nonzero;fill:#5a211d;fill-opacity:1;" d="M 538.59375 609.449219 L 527.992188 604.878906 L 531.273438 593.808594 C 531.589844 592.730469 531.25 591.5625 530.394531 590.828125 C 529.542969 590.09375 528.335938 589.929688 527.316406 590.40625 L 510.378906 598.335938 C 509.640625 598.679688 509.082031 599.328125 508.851562 600.113281 L 505.210938 612.382812 L 500.4375 614.617188 C 499.347656 612.746094 498.0625 610.996094 496.589844 609.386719 C 496.980469 609.019531 497.367188 608.652344 497.75 608.28125 L 493.253906 603.617188 C 492.753906 604.101562 492.238281 604.585938 491.726562 605.0625 C 489.886719 603.746094 487.910156 602.636719 485.804688 601.746094 C 482.003906 600.140625 477.964844 599.324219 473.804688 599.324219 C 469.644531 599.324219 465.605469 600.140625 461.800781 601.746094 C 458.128906 603.300781 454.832031 605.523438 452 608.355469 C 449.171875 611.183594 446.949219 614.480469 445.394531 618.152344 C 443.785156 621.957031 442.96875 625.996094 442.96875 630.15625 C 442.96875 631.214844 443.023438 632.265625 443.128906 633.304688 C 442.484375 633.503906 441.835938 633.703125 441.191406 633.890625 L 443.015625 640.105469 C 443.496094 639.964844 443.980469 639.816406 444.464844 639.671875 C 444.738281 640.511719 445.046875 641.339844 445.394531 642.160156 C 446.949219 645.832031 449.171875 649.128906 452 651.957031 C 454.832031 654.789062 458.128906 657.011719 461.800781 658.566406 C 465.605469 660.171875 469.644531 660.988281 473.804688 660.988281 C 477.964844 660.988281 482.003906 660.171875 485.804688 658.566406 C 489.476562 657.011719 492.773438 654.789062 495.605469 651.957031 C 498.4375 649.128906 500.660156 645.832031 502.210938 642.160156 C 503.820312 638.355469 504.636719 634.316406 504.636719 630.15625 C 504.636719 626.589844 504.039062 623.117188 502.855469 619.800781 L 507.636719 617.5625 L 519.390625 622.628906 C 519.753906 622.785156 520.136719 622.863281 520.523438 622.863281 C 520.9375 622.863281 521.351562 622.773438 521.734375 622.59375 L 538.671875 614.664062 C 539.691406 614.1875 540.335938 613.15625 540.320312 612.03125 C 540.304688 610.90625 539.625 609.894531 538.59375 609.449219 Z M 491.558594 647.914062 C 486.816406 652.65625 480.511719 655.269531 473.804688 655.269531 C 467.09375 655.269531 460.789062 652.65625 456.046875 647.914062 C 451.300781 643.171875 448.691406 636.863281 448.691406 630.15625 C 448.691406 623.449219 451.300781 617.140625 456.046875 612.398438 C 460.789062 607.65625 467.09375 605.042969 473.804688 605.042969 C 480.511719 605.042969 486.816406 607.65625 491.558594 612.398438 C 492.980469 613.820312 494.207031 615.382812 495.234375 617.050781 L 491.109375 618.984375 C 490.324219 617.773438 489.410156 616.636719 488.363281 615.59375 C 484.476562 611.703125 479.304688 609.5625 473.804688 609.5625 C 468.304688 609.5625 463.132812 611.703125 459.242188 615.59375 C 455.351562 619.484375 453.210938 624.65625 453.210938 630.15625 C 453.210938 635.65625 455.351562 640.828125 459.242188 644.71875 C 463.132812 648.609375 468.304688 650.75 473.804688 650.75 C 479.304688 650.75 484.476562 648.609375 488.363281 644.71875 C 492.253906 640.828125 494.398438 635.65625 494.398438 630.15625 C 494.398438 628.097656 494.097656 626.085938 493.519531 624.171875 L 497.648438 622.238281 C 498.484375 624.757812 498.917969 627.425781 498.917969 630.15625 C 498.917969 636.863281 496.304688 643.171875 491.558594 647.914062 Z M 471.429688 631.355469 C 471.917969 632.390625 472.949219 633 474.023438 633 C 474.429688 633 474.84375 632.914062 475.234375 632.730469 L 478.292969 631.300781 C 477.785156 633.304688 475.964844 634.789062 473.804688 634.789062 C 471.25 634.789062 469.171875 632.710938 469.171875 630.15625 C 469.171875 627.601562 471.25 625.523438 473.804688 625.523438 C 474.589844 625.523438 475.328125 625.71875 475.976562 626.066406 L 472.808594 627.550781 C 471.378906 628.21875 470.761719 629.921875 471.429688 631.355469 Z M 473.804688 619.804688 C 468.09375 619.804688 463.449219 624.449219 463.449219 630.15625 C 463.449219 635.867188 468.09375 640.511719 473.804688 640.511719 C 479.511719 640.511719 484.15625 635.867188 484.15625 630.15625 C 484.15625 629.628906 484.117188 629.113281 484.042969 628.609375 L 488.253906 626.636719 C 488.53125 627.765625 488.675781 628.945312 488.675781 630.15625 C 488.675781 638.359375 482.003906 645.03125 473.804688 645.03125 C 465.605469 645.03125 458.933594 638.359375 458.933594 630.15625 C 458.933594 621.957031 465.605469 615.285156 473.804688 615.285156 C 478.753906 615.285156 483.144531 617.714844 485.851562 621.445312 L 481.652344 623.410156 C 479.75 621.203125 476.9375 619.804688 473.804688 619.804688 Z M 513.96875 602.96875 L 523.980469 598.285156 L 522.148438 604.453125 L 512.140625 609.140625 Z M 520.472656 616.867188 L 514.566406 614.320312 L 524.574219 609.636719 L 530.484375 612.183594 Z M 520.472656 616.867188 "/></g><path style=" stroke:none;fill-rule:nonzero;fill:#5a211d;fill-opacity:1;" d="M 444.007812 586.734375 C 444.007812 584.847656 442.480469 583.320312 440.59375 583.320312 L 425.414062 583.320312 L 425.414062 569.273438 L 479 569.273438 C 480.886719 569.273438 482.414062 567.742188 482.414062 565.859375 L 482.414062 458.148438 C 482.414062 456.261719 480.886719 454.734375 479 454.734375 L 334.324219 454.734375 C 332.4375 454.734375 330.90625 456.261719 330.90625 458.148438 L 330.90625 565.859375 C 330.90625 567.746094 332.4375 569.273438 334.324219 569.273438 L 387.910156 569.273438 L 387.910156 583.320312 L 372.730469 583.320312 C 370.84375 583.320312 369.3125 584.851562 369.3125 586.738281 C 369.3125 588.621094 370.84375 590.152344 372.730469 590.152344 L 440.59375 590.152344 C 442.480469 590.152344 444.007812 588.621094 444.007812 586.734375 Z M 337.738281 461.566406 L 475.585938 461.566406 L 475.585938 542.453125 L 337.738281 542.453125 Z M 418.582031 583.320312 L 394.738281 583.320312 L 394.738281 569.273438 L 418.582031 569.273438 Z M 421.996094 562.308594 L 391.324219 562.308594 C 391 562.308594 390.683594 562.355469 390.382812 562.441406 L 337.738281 562.441406 L 337.738281 549.285156 L 475.585938 549.285156 L 475.585938 562.441406 L 422.941406 562.441406 C 422.640625 562.355469 422.324219 562.308594 421.996094 562.308594 Z M 421.996094 562.308594 "/><path style=" stroke:none;fill-rule:nonzero;fill:#5a211d;fill-opacity:1;" d="M 300.183594 442.761719 L 294.785156 439.179688 C 293.757812 440.726562 292.75 442.316406 291.789062 443.902344 L 297.332031 447.257812 C 298.246094 445.746094 299.207031 444.234375 300.183594 442.761719 Z M 300.183594 442.761719 "/><path style=" stroke:none;fill-rule:nonzero;fill:#5a211d;fill-opacity:1;" d="M 318.28125 421.160156 L 313.804688 416.472656 C 312.464844 417.753906 311.132812 419.082031 309.84375 420.417969 L 314.511719 424.910156 C 315.734375 423.640625 317.003906 422.378906 318.28125 421.160156 Z M 318.28125 421.160156 "/><path style=" stroke:none;fill-rule:nonzero;fill:#5a211d;fill-opacity:1;" d="M 325.320312 414.917969 L 321.203125 409.914062 C 319.773438 411.09375 318.34375 412.316406 316.960938 413.554688 L 321.28125 418.382812 C 322.597656 417.203125 323.957031 416.039062 325.320312 414.917969 Z M 325.320312 414.917969 "/><path style=" stroke:none;fill-rule:nonzero;fill:#5a211d;fill-opacity:1;" d="M 290.972656 459.167969 L 285.101562 456.429688 C 284.316406 458.109375 283.554688 459.832031 282.84375 461.546875 L 288.824219 464.035156 C 289.503906 462.40625 290.226562 460.769531 290.972656 459.167969 Z M 290.972656 459.167969 "/><path style=" stroke:none;fill-rule:nonzero;fill:#5a211d;fill-opacity:1;" d="M 311.71875 427.90625 L 306.910156 423.5625 C 305.667969 424.941406 304.4375 426.363281 303.253906 427.792969 L 308.238281 431.925781 C 309.363281 430.570312 310.535156 429.214844 311.71875 427.90625 Z M 311.71875 427.90625 "/><path style=" stroke:none;fill-rule:nonzero;fill:#5a211d;fill-opacity:1;" d="M 295.269531 450.792969 L 289.621094 447.621094 C 288.714844 449.242188 287.828125 450.902344 286.988281 452.558594 L 292.765625 455.488281 C 293.5625 453.914062 294.40625 452.332031 295.269531 450.792969 Z M 295.269531 450.792969 "/><path style=" stroke:none;fill-rule:nonzero;fill:#5a211d;fill-opacity:1;" d="M 357.472656 395.648438 L 355.003906 389.660156 C 353.292969 390.367188 351.566406 391.117188 349.882812 391.898438 L 352.601562 397.777344 C 354.203125 397.039062 355.84375 396.320312 357.472656 395.648438 Z M 357.472656 395.648438 "/><path style=" stroke:none;fill-rule:nonzero;fill:#5a211d;fill-opacity:1;" d="M 375.320312 389.820312 L 373.773438 383.53125 C 371.976562 383.972656 370.160156 384.457031 368.378906 384.976562 L 370.191406 391.195312 C 371.882812 390.703125 373.609375 390.242188 375.320312 389.820312 Z M 375.320312 389.820312 "/><path style=" stroke:none;fill-rule:nonzero;fill:#5a211d;fill-opacity:1;" d="M 348.921875 399.550781 L 346.011719 393.761719 C 344.355469 394.59375 342.695312 395.472656 341.074219 396.375 L 344.222656 402.039062 C 345.761719 401.179688 347.34375 400.34375 348.921875 399.550781 Z M 348.921875 399.550781 "/><path style=" stroke:none;fill-rule:nonzero;fill:#5a211d;fill-opacity:1;" d="M 305.675781 435.121094 L 300.558594 431.148438 C 299.421875 432.613281 298.296875 434.121094 297.222656 435.632812 L 302.5 439.390625 C 303.523438 437.949219 304.59375 436.515625 305.675781 435.121094 Z M 305.675781 435.121094 "/><path style=" stroke:none;fill-rule:nonzero;fill:#5a211d;fill-opacity:1;" d="M 366.285156 392.402344 L 364.277344 386.242188 C 362.515625 386.820312 360.738281 387.441406 359.003906 388.089844 L 361.273438 394.15625 C 362.925781 393.539062 364.613281 392.949219 366.285156 392.402344 Z M 366.285156 392.402344 "/><path style=" stroke:none;fill-rule:nonzero;fill:#5a211d;fill-opacity:1;" d="M 332.800781 409.214844 L 329.066406 403.921875 C 327.550781 404.988281 326.039062 406.105469 324.566406 407.234375 L 328.519531 412.367188 C 329.917969 411.292969 331.359375 410.230469 332.800781 409.214844 Z M 332.800781 409.214844 "/><path style=" stroke:none;fill-rule:nonzero;fill:#5a211d;fill-opacity:1;" d="M 340.679688 404.082031 L 337.351562 398.527344 C 335.761719 399.480469 334.167969 400.480469 332.617188 401.5 L 336.179688 406.910156 C 337.652344 405.941406 339.167969 404.988281 340.679688 404.082031 Z M 340.679688 404.082031 "/><g clip-rule="nonzero" clip-path="url(#479da29c2d)"><path style=" stroke:none;fill-rule:nonzero;fill:#5a211d;fill-opacity:1;" d="M 380.089844 388.746094 C 382.25 393.492188 386.867188 396.894531 392.304688 397.324219 L 392.304688 416.570312 C 392.304688 420.917969 395.84375 424.457031 400.191406 424.457031 L 400.957031 424.457031 C 405.304688 424.457031 408.839844 420.917969 408.839844 416.570312 L 408.839844 397.371094 L 414.710938 397.371094 C 414.828125 397.40625 414.945312 397.441406 415.070312 397.464844 C 424.433594 399.300781 433.121094 403.660156 440.191406 410.070312 L 443.960938 413.488281 C 444.570312 414.039062 445.347656 414.328125 446.136719 414.328125 C 446.582031 414.328125 447.027344 414.234375 447.449219 414.046875 C 448.621094 413.53125 449.375 412.371094 449.375 411.089844 L 449.382812 391.957031 C 453.21875 390.609375 455.972656 386.953125 455.972656 382.660156 C 455.972656 378.371094 453.21875 374.714844 449.382812 373.363281 L 449.375 354.136719 C 449.375 352.855469 448.621094 351.695312 447.449219 351.179688 C 446.277344 350.660156 444.910156 350.878906 443.960938 351.738281 L 440.191406 355.15625 C 433.121094 361.566406 424.433594 365.925781 415.070312 367.761719 C 414.832031 367.808594 414.605469 367.882812 414.390625 367.976562 L 393.472656 367.976562 C 385.457031 367.976562 378.921875 374.421875 378.777344 382.40625 C 378.523438 382.457031 378.265625 382.511719 378.011719 382.5625 L 379.347656 388.902344 C 379.59375 388.847656 379.839844 388.796875 380.089844 388.746094 Z M 449.359375 382.191406 C 449.375 382.0625 449.386719 381.929688 449.386719 381.796875 L 449.382812 379.136719 C 450.332031 380.015625 450.925781 381.269531 450.925781 382.660156 C 450.925781 384.050781 450.332031 385.308594 449.382812 386.183594 L 449.382812 383.429688 C 449.382812 383.296875 449.375 383.164062 449.359375 383.035156 Z M 418.945312 383.425781 L 418.945312 373.539062 C 427.757812 371.386719 435.957031 367.230469 442.898438 361.390625 L 442.90625 381.40625 C 442.890625 381.535156 442.882812 381.667969 442.882812 381.800781 L 442.882812 383.429688 C 442.882812 383.5625 442.890625 383.695312 442.90625 383.824219 L 442.898438 403.839844 C 435.957031 398 427.757812 393.839844 418.945312 391.6875 Z M 402.363281 416.570312 C 402.363281 417.347656 401.730469 417.976562 400.957031 417.976562 L 400.191406 417.976562 C 399.414062 417.976562 398.78125 417.347656 398.78125 416.570312 L 398.78125 397.394531 L 402.363281 397.394531 Z M 393.472656 374.453125 L 412.453125 374.453125 L 412.453125 381.800781 C 412.453125 381.902344 412.460938 382 412.46875 382.101562 L 412.46875 383.125 C 412.457031 383.226562 412.453125 383.324219 412.453125 383.425781 L 412.453125 390.894531 L 393.472656 390.894531 C 388.9375 390.894531 385.25 387.207031 385.25 382.675781 C 385.25 378.140625 388.9375 374.453125 393.472656 374.453125 Z M 393.472656 374.453125 "/></g><path style=" stroke:none;fill-rule:nonzero;fill:#5a211d;fill-opacity:1;" d="M 281.949219 539.066406 L 275.613281 540.417969 C 276.003906 542.257812 276.441406 544.109375 276.910156 545.925781 L 283.183594 544.304688 C 282.734375 542.578125 282.320312 540.816406 281.949219 539.066406 Z M 281.949219 539.066406 "/><path style=" stroke:none;fill-rule:nonzero;fill:#5a211d;fill-opacity:1;" d="M 291.023438 566.09375 L 285.15625 568.839844 C 285.953125 570.542969 286.796875 572.25 287.664062 573.914062 L 293.410156 570.921875 C 292.582031 569.335938 291.78125 567.714844 291.023438 566.09375 Z M 291.023438 566.09375 "/><path style=" stroke:none;fill-rule:nonzero;fill:#5a211d;fill-opacity:1;" d="M 284.285156 548.296875 L 278.070312 550.125 C 278.601562 551.925781 279.175781 553.742188 279.785156 555.519531 L 285.914062 553.425781 C 285.335938 551.738281 284.789062 550.011719 284.285156 548.296875 Z M 284.285156 548.296875 "/><path style=" stroke:none;fill-rule:nonzero;fill:#5a211d;fill-opacity:1;" d="M 287.316406 557.324219 L 281.257812 559.617188 C 281.921875 561.375 282.636719 563.140625 283.375 564.867188 L 289.328125 562.316406 C 288.625 560.675781 287.949219 558.992188 287.316406 557.324219 Z M 287.316406 557.324219 "/><path style=" stroke:none;fill-rule:nonzero;fill:#5a211d;fill-opacity:1;" d="M 300.371094 582.675781 L 294.984375 586.273438 C 296.027344 587.835938 297.117188 589.394531 298.226562 590.914062 L 303.453125 587.089844 C 302.398438 585.648438 301.363281 584.160156 300.371094 582.675781 Z M 300.371094 582.675781 "/><path style=" stroke:none;fill-rule:nonzero;fill:#5a211d;fill-opacity:1;" d="M 305.953125 590.394531 L 300.851562 594.382812 C 302.007812 595.863281 303.210938 597.339844 304.429688 598.765625 L 309.359375 594.5625 C 308.199219 593.203125 307.054688 591.800781 305.953125 590.394531 Z M 305.953125 590.394531 "/><path style=" stroke:none;fill-rule:nonzero;fill:#5a211d;fill-opacity:1;" d="M 295.382812 574.5625 L 289.738281 577.742188 C 290.660156 579.378906 291.632812 581.015625 292.625 582.613281 L 298.125 579.195312 C 297.183594 577.675781 296.257812 576.117188 295.382812 574.5625 Z M 295.382812 574.5625 "/><g clip-rule="nonzero" clip-path="url(#2926a72e69)"><path style=" stroke:none;fill-rule:nonzero;fill:#5a211d;fill-opacity:1;" d="M 280.921875 533.691406 L 298.640625 533.691406 C 304.554688 533.691406 309.367188 528.878906 309.367188 522.960938 L 309.367188 478.128906 C 309.367188 472.210938 304.554688 467.398438 298.640625 467.398438 L 286.152344 467.398438 L 281.253906 465.546875 C 281.023438 466.160156 280.792969 466.78125 280.570312 467.398438 L 253.804688 467.398438 C 247.890625 467.398438 243.078125 472.210938 243.078125 478.128906 L 243.078125 522.960938 C 243.078125 528.878906 247.890625 533.691406 253.804688 533.691406 L 274.359375 533.691406 C 274.488281 534.507812 274.628906 535.324219 274.773438 536.132812 L 281.148438 534.992188 C 281.070312 534.5625 280.996094 534.128906 280.921875 533.691406 Z M 253.804688 527.214844 C 251.460938 527.214844 249.554688 525.304688 249.554688 522.960938 L 249.554688 478.128906 C 249.554688 475.785156 251.460938 473.878906 253.804688 473.878906 L 298.640625 473.878906 C 300.984375 473.878906 302.890625 475.785156 302.890625 478.128906 L 302.890625 478.214844 L 302.730469 478.214844 L 302.730469 483.261719 L 302.890625 483.261719 L 302.890625 518.175781 L 302.730469 518.175781 L 302.730469 523.222656 L 302.882812 523.222656 C 302.746094 525.445312 300.898438 527.214844 298.640625 527.214844 Z M 253.804688 527.214844 "/></g><path style=" stroke:none;fill-rule:nonzero;fill:#5a211d;fill-opacity:1;" d="M 405.566406 638.980469 C 404.789062 638.980469 404.003906 638.972656 403.230469 638.957031 L 403.113281 645.433594 C 403.925781 645.449219 404.75 645.457031 405.566406 645.457031 C 406.648438 645.457031 407.742188 645.441406 408.820312 645.417969 L 408.664062 638.941406 C 407.640625 638.964844 406.597656 638.980469 405.566406 638.980469 Z M 405.566406 638.980469 "/><path style=" stroke:none;fill-rule:nonzero;fill:#5a211d;fill-opacity:1;" d="M 431.875 636.238281 L 433.21875 642.574219 C 435.070312 642.183594 436.941406 641.742188 438.777344 641.269531 L 437.164062 634.996094 C 435.417969 635.445312 433.640625 635.863281 431.875 636.238281 Z M 431.875 636.238281 "/><path style=" stroke:none;fill-rule:nonzero;fill:#5a211d;fill-opacity:1;" d="M 422.410156 637.867188 L 423.261719 644.289062 C 425.144531 644.039062 427.039062 643.742188 428.90625 643.414062 L 427.777344 637.035156 C 426 637.347656 424.195312 637.628906 422.410156 637.867188 Z M 422.410156 637.867188 "/><path style=" stroke:none;fill-rule:nonzero;fill:#5a211d;fill-opacity:1;" d="M 383.011719 643.550781 C 384.878906 643.867188 386.777344 644.152344 388.660156 644.390625 L 389.476562 637.964844 C 387.683594 637.738281 385.878906 637.46875 384.105469 637.164062 Z M 383.011719 643.550781 "/><path style=" stroke:none;fill-rule:nonzero;fill:#5a211d;fill-opacity:1;" d="M 393.027344 644.871094 C 394.914062 645.046875 396.828125 645.1875 398.722656 645.28125 L 399.050781 638.8125 C 397.246094 638.722656 395.425781 638.589844 393.632812 638.421875 Z M 393.027344 644.871094 "/><path style=" stroke:none;fill-rule:nonzero;fill:#5a211d;fill-opacity:1;" d="M 373.125 641.464844 C 374.964844 641.925781 376.835938 642.355469 378.695312 642.734375 L 379.996094 636.390625 C 378.230469 636.027344 376.449219 635.621094 374.703125 635.183594 Z M 373.125 641.464844 "/><path style=" stroke:none;fill-rule:nonzero;fill:#5a211d;fill-opacity:1;" d="M 412.839844 638.773438 L 413.207031 645.242188 C 415.101562 645.132812 417.015625 644.984375 418.898438 644.796875 L 418.257812 638.347656 C 416.464844 638.527344 414.644531 638.671875 412.839844 638.773438 Z M 412.839844 638.773438 "/><path style=" stroke:none;fill-rule:nonzero;fill:#5a211d;fill-opacity:1;" d="M 363.425781 638.632812 C 365.222656 639.234375 367.058594 639.804688 368.882812 640.328125 L 370.667969 634.097656 C 368.933594 633.601562 367.1875 633.0625 365.480469 632.488281 Z M 363.425781 638.632812 "/><g clip-rule="nonzero" clip-path="url(#31f6d87fd6)"><path style=" stroke:none;fill-rule:nonzero;fill:#5a211d;fill-opacity:1;" d="M 360.007812 612.476562 C 360.007812 611.714844 359.707031 610.988281 359.171875 610.453125 L 345.984375 597.265625 C 345.941406 597.222656 345.894531 597.179688 345.851562 597.140625 C 345.839844 597.132812 345.828125 597.121094 345.816406 597.109375 C 345.773438 597.074219 345.726562 597.039062 345.683594 597.003906 C 345.675781 597 345.671875 596.996094 345.664062 596.992188 C 345.617188 596.953125 345.566406 596.917969 345.515625 596.886719 C 345.5 596.878906 345.484375 596.867188 345.46875 596.859375 C 345.421875 596.828125 345.375 596.800781 345.328125 596.773438 C 345.320312 596.773438 345.316406 596.765625 345.308594 596.765625 C 345.257812 596.734375 345.203125 596.710938 345.148438 596.683594 C 345.132812 596.679688 345.117188 596.671875 345.101562 596.664062 C 345.046875 596.640625 344.996094 596.621094 344.941406 596.601562 C 344.9375 596.597656 344.933594 596.597656 344.929688 596.59375 C 344.871094 596.574219 344.8125 596.554688 344.753906 596.539062 C 344.738281 596.535156 344.722656 596.53125 344.707031 596.527344 C 344.652344 596.511719 344.597656 596.5 344.542969 596.488281 C 344.535156 596.484375 344.53125 596.484375 344.527344 596.484375 C 344.46875 596.472656 344.40625 596.460938 344.347656 596.453125 C 344.332031 596.449219 344.316406 596.449219 344.300781 596.445312 C 344.246094 596.441406 344.191406 596.4375 344.136719 596.433594 C 344.128906 596.433594 344.121094 596.429688 344.113281 596.429688 C 344.0625 596.429688 344.011719 596.425781 343.960938 596.425781 L 310.253906 596.425781 C 308.671875 596.425781 307.394531 597.707031 307.394531 599.289062 L 307.394531 601.960938 L 307.3125 602.03125 C 307.339844 602.0625 307.367188 602.09375 307.394531 602.121094 L 307.394531 658.105469 C 307.394531 659.683594 308.671875 660.964844 310.253906 660.964844 L 357.148438 660.964844 C 358.730469 660.964844 360.007812 659.683594 360.007812 658.105469 L 360.007812 635.222656 L 361.542969 631.101562 C 361.03125 630.910156 360.519531 630.714844 360.007812 630.519531 Z M 346.820312 606.238281 L 349.59375 609.042969 L 346.820312 609.042969 Z M 354.289062 655.246094 L 313.113281 655.246094 L 313.113281 602.148438 L 341.101562 602.148438 L 341.101562 611.902344 C 341.101562 613.484375 342.382812 614.761719 343.960938 614.761719 L 354.289062 614.761719 Z M 354.289062 655.246094 "/></g><path style=" stroke:none;fill-rule:nonzero;fill:#5a211d;fill-opacity:1;" d="M 522.914062 559.644531 L 528.925781 562.058594 C 529.648438 560.257812 530.339844 558.417969 530.984375 556.589844 L 524.871094 554.445312 C 524.261719 556.183594 523.601562 557.933594 522.914062 559.644531 Z M 522.914062 559.644531 "/><path style=" stroke:none;fill-rule:nonzero;fill:#5a211d;fill-opacity:1;" d="M 514.195312 577.25 L 519.757812 580.570312 C 520.75 578.902344 521.71875 577.191406 522.636719 575.488281 L 516.933594 572.417969 C 516.0625 574.039062 515.140625 575.664062 514.195312 577.25 Z M 514.195312 577.25 "/><path style=" stroke:none;fill-rule:nonzero;fill:#5a211d;fill-opacity:1;" d="M 518.898438 568.617188 L 524.703125 571.492188 C 525.566406 569.753906 526.398438 567.976562 527.179688 566.203125 L 521.253906 563.585938 C 520.511719 565.273438 519.71875 566.964844 518.898438 568.617188 Z M 518.898438 568.617188 "/><path style=" stroke:none;fill-rule:nonzero;fill:#5a211d;fill-opacity:1;" d="M 526.21875 550.386719 L 532.398438 552.320312 C 532.976562 550.46875 533.523438 548.582031 534.019531 546.707031 L 527.757812 545.046875 C 527.285156 546.832031 526.769531 548.628906 526.21875 550.386719 Z M 526.21875 550.386719 "/><path style=" stroke:none;fill-rule:nonzero;fill:#5a211d;fill-opacity:1;" d="M 536.277344 536.617188 L 529.902344 535.453125 C 529.570312 537.269531 529.195312 539.101562 528.785156 540.898438 L 535.097656 542.34375 C 535.53125 540.453125 535.925781 538.527344 536.277344 536.617188 Z M 536.277344 536.617188 "/><path style=" stroke:none;fill-rule:nonzero;fill:#5a211d;fill-opacity:1;" d="M 508.832031 585.492188 L 514.121094 589.230469 C 515.238281 587.648438 516.339844 586.019531 517.390625 584.390625 L 511.941406 580.882812 C 510.945312 582.433594 509.898438 583.984375 508.832031 585.492188 Z M 508.832031 585.492188 "/><path style=" stroke:none;fill-rule:nonzero;fill:#5a211d;fill-opacity:1;" d="M 502.847656 593.289062 L 507.832031 597.429688 C 509.070312 595.9375 510.292969 594.398438 511.464844 592.855469 L 506.304688 588.9375 C 505.191406 590.40625 504.027344 591.871094 502.847656 593.289062 Z M 502.847656 593.289062 "/><path style=" stroke:none;fill-rule:nonzero;fill:#5a211d;fill-opacity:1;" d="M 496.277344 600.605469 L 500.925781 605.117188 C 502.277344 603.726562 503.613281 602.285156 504.902344 600.835938 L 500.058594 596.535156 C 498.835938 597.910156 497.5625 599.28125 496.277344 600.605469 Z M 496.277344 600.605469 "/><path style=" stroke:none;fill-rule:nonzero;fill:#5a211d;fill-opacity:1;" d="M 473.964844 398.636719 C 473.167969 398.15625 472.355469 397.679688 471.550781 397.214844 L 468.328125 402.835938 C 469.097656 403.277344 469.871094 403.730469 470.628906 404.1875 Z M 473.964844 398.636719 "/><path style=" stroke:none;fill-rule:nonzero;fill:#5a211d;fill-opacity:1;" d="M 512.800781 445.625 L 518.289062 442.191406 C 517.25 440.527344 516.160156 438.867188 515.046875 437.253906 L 509.714844 440.929688 C 510.773438 442.464844 511.808594 444.046875 512.800781 445.625 Z M 512.800781 445.625 "/><path style=" stroke:none;fill-rule:nonzero;fill:#5a211d;fill-opacity:1;" d="M 517.738281 454.253906 L 523.480469 451.261719 C 522.578125 449.523438 521.621094 447.78125 520.636719 446.082031 L 515.03125 449.328125 C 515.964844 450.945312 516.875 452.601562 517.738281 454.253906 Z M 517.738281 454.253906 "/><path style=" stroke:none;fill-rule:nonzero;fill:#5a211d;fill-opacity:1;" d="M 507.199219 437.414062 L 512.402344 433.554688 C 511.238281 431.980469 510.019531 430.410156 508.785156 428.886719 L 503.753906 432.972656 C 504.929688 434.417969 506.089844 435.914062 507.199219 437.414062 Z M 507.199219 437.414062 "/><path style=" stroke:none;fill-rule:nonzero;fill:#5a211d;fill-opacity:1;" d="M 521.976562 463.242188 L 527.941406 460.710938 C 527.175781 458.910156 526.359375 457.097656 525.511719 455.324219 L 519.667969 458.121094 C 520.472656 459.804688 521.25 461.527344 521.976562 463.242188 Z M 521.976562 463.242188 "/><path style=" stroke:none;fill-rule:nonzero;fill:#5a211d;fill-opacity:1;" d="M 486.796875 415.734375 L 490.964844 410.773438 C 489.460938 409.511719 487.914062 408.265625 486.355469 407.074219 L 482.414062 412.214844 C 483.894531 413.351562 485.371094 414.535156 486.796875 415.734375 Z M 486.796875 415.734375 "/><path style=" stroke:none;fill-rule:nonzero;fill:#5a211d;fill-opacity:1;" d="M 494.15625 422.421875 L 498.699219 417.800781 C 497.300781 416.425781 495.851562 415.0625 494.394531 413.753906 L 490.0625 418.570312 C 491.449219 419.816406 492.828125 421.113281 494.15625 422.421875 Z M 494.15625 422.421875 "/><path style=" stroke:none;fill-rule:nonzero;fill:#5a211d;fill-opacity:1;" d="M 482.703125 404.371094 C 481.109375 403.230469 479.464844 402.109375 477.820312 401.042969 L 474.292969 406.476562 C 475.859375 407.492188 477.421875 408.558594 478.941406 409.640625 Z M 482.703125 404.371094 "/><path style=" stroke:none;fill-rule:nonzero;fill:#5a211d;fill-opacity:1;" d="M 500.972656 429.660156 L 505.859375 425.410156 C 504.570312 423.929688 503.234375 422.460938 501.882812 421.039062 L 497.191406 425.5 C 498.476562 426.855469 499.75 428.253906 500.972656 429.660156 Z M 500.972656 429.660156 "/><path style=" stroke:none;fill-rule:nonzero;fill:#5a211d;fill-opacity:1;" d="M 440.191406 494.941406 C 441.117188 494.105469 441.414062 492.777344 440.9375 491.628906 L 437.96875 484.460938 C 437.492188 483.308594 436.34375 482.582031 435.101562 482.644531 L 427.167969 483.050781 L 424.695312 480.582031 L 425.101562 472.648438 C 425.164062 471.402344 424.4375 470.253906 423.289062 469.777344 L 416.121094 466.808594 C 414.96875 466.332031 413.640625 466.632812 412.808594 467.554688 L 407.484375 473.453125 L 403.992188 473.453125 L 398.667969 467.554688 C 397.832031 466.632812 396.507812 466.332031 395.355469 466.808594 L 388.1875 469.777344 C 387.039062 470.253906 386.3125 471.402344 386.375 472.648438 L 386.78125 480.582031 L 384.308594 483.050781 L 376.375 482.644531 C 375.132812 482.582031 373.984375 483.308594 373.503906 484.460938 L 370.535156 491.628906 C 370.058594 492.777344 370.359375 494.105469 371.285156 494.941406 L 377.179688 500.261719 L 377.179688 503.757812 L 371.285156 509.078125 C 370.359375 509.914062 370.058594 511.242188 370.535156 512.390625 L 373.503906 519.558594 C 373.984375 520.710938 375.132812 521.4375 376.375 521.371094 L 384.308594 520.96875 L 386.78125 523.4375 L 386.375 531.371094 C 386.3125 532.617188 387.039062 533.765625 388.1875 534.242188 L 395.355469 537.210938 C 396.507812 537.6875 397.832031 537.386719 398.667969 536.464844 L 403.992188 530.566406 L 407.484375 530.566406 L 412.808594 536.464844 C 413.378906 537.09375 414.175781 537.433594 414.996094 537.433594 C 415.371094 537.433594 415.753906 537.363281 416.121094 537.210938 L 423.289062 534.242188 C 424.4375 533.765625 425.164062 532.617188 425.101562 531.371094 L 424.695312 523.4375 L 427.167969 520.96875 L 435.101562 521.371094 C 436.34375 521.4375 437.492188 520.710938 437.96875 519.558594 L 440.9375 512.390625 C 441.414062 511.242188 441.117188 509.914062 440.191406 509.078125 L 434.296875 503.757812 L 434.296875 500.261719 Z M 429.378906 507.25 L 434.703125 512.058594 L 433.324219 515.386719 L 426.160156 515.019531 C 425.328125 514.976562 424.515625 515.289062 423.929688 515.878906 L 419.605469 520.203125 C 419.015625 520.789062 418.707031 521.601562 418.746094 522.433594 L 419.113281 529.597656 L 415.785156 530.976562 L 410.976562 525.652344 C 410.417969 525.035156 409.625 524.679688 408.792969 524.679688 L 402.679688 524.679688 C 401.847656 524.679688 401.054688 525.035156 400.496094 525.652344 L 395.6875 530.976562 L 392.359375 529.597656 L 392.722656 522.433594 C 392.765625 521.601562 392.457031 520.789062 391.867188 520.203125 L 387.542969 515.878906 C 386.957031 515.292969 386.144531 514.976562 385.3125 515.019531 L 378.148438 515.386719 L 376.769531 512.058594 L 382.09375 507.253906 C 382.710938 506.695312 383.066406 505.898438 383.066406 505.066406 L 383.066406 498.953125 C 383.066406 498.121094 382.710938 497.328125 382.09375 496.769531 L 376.769531 491.960938 L 378.148438 488.632812 L 385.3125 489 C 386.144531 489.042969 386.957031 488.730469 387.542969 488.140625 L 391.867188 483.820312 C 392.453125 483.230469 392.765625 482.417969 392.722656 481.585938 L 392.359375 474.421875 L 395.6875 473.042969 L 400.496094 478.367188 C 401.054688 478.988281 401.847656 479.339844 402.679688 479.339844 L 408.792969 479.339844 C 409.625 479.339844 410.417969 478.988281 410.976562 478.367188 L 415.785156 473.042969 L 419.113281 474.421875 L 418.746094 481.585938 C 418.703125 482.417969 419.015625 483.230469 419.605469 483.820312 L 423.925781 488.140625 C 424.515625 488.730469 425.328125 489.042969 426.160156 489 L 433.324219 488.632812 L 434.703125 491.960938 L 429.378906 496.769531 C 428.757812 497.328125 428.40625 498.121094 428.40625 498.953125 L 428.40625 505.066406 C 428.40625 505.898438 428.761719 506.691406 429.378906 507.25 Z M 429.378906 507.25 "/><path style=" stroke:none;fill-rule:nonzero;fill:#5a211d;fill-opacity:1;" d="M 405.738281 485.804688 C 396.800781 485.804688 389.53125 493.074219 389.53125 502.011719 C 389.53125 510.945312 396.800781 518.214844 405.738281 518.214844 C 414.671875 518.214844 421.941406 510.945312 421.941406 502.011719 C 421.941406 493.074219 414.671875 485.804688 405.738281 485.804688 Z M 405.738281 512.328125 C 400.046875 512.328125 395.421875 507.699219 395.421875 502.011719 C 395.421875 496.320312 400.046875 491.691406 405.738281 491.691406 C 411.425781 491.691406 416.054688 496.320312 416.054688 502.011719 C 416.054688 507.699219 411.425781 512.328125 405.738281 512.328125 Z M 405.738281 512.328125 "/></g></svg>